<svg height="512" viewBox="0 0 58 58" width="512" xmlns="http://www.w3.org/2000/svg"><g id="035---Rosetta-Stone" fill="none"><path id="Shape" d="m55 14 3-4-2-6-5-4h-47l-4 9v17l1 5v7l-1 4v10l3 2 4 4h36l7-4 5-7c1.257-10.053.792-5.5 2-20l-2-4z" fill="#3f5c6c"/><path id="Shape" d="m4 0h40l7 4 2 6-3 4v9l2 4c-1.216 14.6-.752 10.013-2 20l-6 7-7 4h-30l-4-4-3-2v-10l1-4v-7l-1-5v-17z" fill="#547580"/><g fill="#ecf0f1"><path id="Shape" d="m45 23c-.2651948-.0000566-.5195073-.1054506-.707-.293l-3.293-3.293-3.293 3.293c-.3904999.3903819-1.0235001.3903819-1.414 0l-3.293-3.293-3.293 3.293c-.3904999.3903819-1.0235001.3903819-1.414 0l-3.293-3.293-3.293 3.293c-.3904999.3903819-1.0235001.3903819-1.414 0l-3.293-3.293-3.293 3.293c-.3904999.3903819-1.0235001.3903819-1.414 0l-3.293-3.293-3.293 3.293c-.39237889.3789722-1.01608478.3735524-1.40181858-.0121814-.38573379-.3857338-.39115363-1.0094397-.01218142-1.4018186l4-4c.39049985-.3903819 1.02350015-.3903819 1.414 0l3.293 3.293 3.293-3.293c.3904999-.3903819 1.0235001-.3903819 1.414 0l3.293 3.293 3.293-3.293c.3904999-.3903819 1.0235001-.3903819 1.414 0l3.293 3.293 3.293-3.293c.3904999-.3903819 1.0235001-.3903819 1.414 0l3.293 3.293 3.293-3.293c.3904999-.3903819 1.0235001-.3903819 1.414 0l4 4c.2859079.2859943.3714219.7160366.216678 1.0896546-.1547439.3736179-.5192821.6172591-.923678.6173454z"/><path id="Shape" d="m45 39c-.2651948-.0000566-.5195073-.1054506-.707-.293l-3.293-3.293-3.293 3.293c-.3904999.3903819-1.0235001.3903819-1.414 0l-3.293-3.293-3.293 3.293c-.3904999.3903819-1.0235001.3903819-1.414 0l-3.293-3.293-3.293 3.293c-.3904999.3903819-1.0235001.3903819-1.414 0l-3.293-3.293-3.293 3.293c-.3904999.3903819-1.0235001.3903819-1.414 0l-3.293-3.293-3.293 3.293c-.39237889.3789722-1.01608478.3735524-1.40181858-.0121814-.38573379-.3857338-.39115363-1.0094397-.01218142-1.4018186l4-4c.39049985-.3903819 1.02350015-.3903819 1.414 0l3.293 3.293 3.293-3.293c.3904999-.3903819 1.0235001-.3903819 1.414 0l3.293 3.293 3.293-3.293c.3904999-.3903819 1.0235001-.3903819 1.414 0l3.293 3.293 3.293-3.293c.3904999-.3903819 1.0235001-.3903819 1.414 0l3.293 3.293 3.293-3.293c.3904999-.3903819 1.0235001-.3903819 1.414 0l4 4c.2859079.2859943.3714219.7160366.216678 1.0896546-.1547439.3736179-.5192821.6172591-.923678.6173454z"/><path id="Shape" d="m45 43h-40c-.55228475 0-1-.4477153-1-1s.44771525-1 1-1h40c.5522847 0 1 .4477153 1 1s-.4477153 1-1 1z"/><path id="Shape" d="m7 7h-1c-.55228475 0-1-.44771525-1-1s.44771525-1 1-1h1c.55228475 0 1 .44771525 1 1s-.44771525 1-1 1z"/><path id="Shape" d="m23 7h-12c-.5522847 0-1-.44771525-1-1s.4477153-1 1-1h12c.5522847 0 1 .44771525 1 1s-.4477153 1-1 1z"/><path id="Shape" d="m32 7h-5c-.5522847 0-1-.44771525-1-1s.4477153-1 1-1h5c.5522847 0 1 .44771525 1 1s-.4477153 1-1 1z"/><path id="Shape" d="m45 7h-9c-.5522847 0-1-.44771525-1-1s.4477153-1 1-1h9c.5522847 0 1 .44771525 1 1s-.4477153 1-1 1z"/><path id="Shape" d="m29 11h-23c-.55228475 0-1-.4477153-1-1 0-.55228475.44771525-1 1-1h23c.5522847 0 1 .44771525 1 1 0 .5522847-.4477153 1-1 1z"/><path id="Shape" d="m45 11h-12c-.5522847 0-1-.4477153-1-1 0-.55228475.4477153-1 1-1h12c.5522847 0 1 .44771525 1 1 0 .5522847-.4477153 1-1 1z"/><path id="Shape" d="m8 15h-2c-.55228475 0-1-.4477153-1-1s.44771525-1 1-1h2c.55228475 0 1 .4477153 1 1s-.44771525 1-1 1z"/><path id="Shape" d="m21 15h-9c-.5522847 0-1-.4477153-1-1s.4477153-1 1-1h9c.5522847 0 1 .4477153 1 1s-.4477153 1-1 1z"/><path id="Shape" d="m45 15h-20c-.5522847 0-1-.4477153-1-1s.4477153-1 1-1h20c.5522847 0 1 .4477153 1 1s-.4477153 1-1 1z"/><path id="Shape" d="m18 27h-13c-.55228475 0-1-.4477153-1-1s.44771525-1 1-1h13c.5522847 0 1 .4477153 1 1s-.4477153 1-1 1z"/><path id="Shape" d="m45 27h-23c-.5522847 0-1-.4477153-1-1s.4477153-1 1-1h23c.5522847 0 1 .4477153 1 1s-.4477153 1-1 1z"/><path id="Shape" d="m7 31h-2c-.55228475 0-1-.4477153-1-1s.44771525-1 1-1h2c.55228475 0 1 .4477153 1 1s-.44771525 1-1 1z"/><path id="Shape" d="m33 31h-22c-.5522847 0-1-.4477153-1-1s.4477153-1 1-1h22c.5522847 0 1 .4477153 1 1s-.4477153 1-1 1z"/><path id="Shape" d="m45 31h-8c-.5522847 0-1-.4477153-1-1s.4477153-1 1-1h8c.5522847 0 1 .4477153 1 1s-.4477153 1-1 1z"/><path id="Shape" d="m6 47h-1c-.55228475 0-1-.4477153-1-1s.44771525-1 1-1h1c.55228475 0 1 .4477153 1 1s-.44771525 1-1 1z"/><path id="Shape" d="m29 47h-19c-.55228475 0-1-.4477153-1-1s.44771525-1 1-1h19c.5522847 0 1 .4477153 1 1s-.4477153 1-1 1z"/><path id="Shape" d="m45 47h-12c-.5522847 0-1-.4477153-1-1s.4477153-1 1-1h12c.5522847 0 1 .4477153 1 1s-.4477153 1-1 1z"/><path id="Shape" d="m23 51h-18c-.55228475 0-1-.4477153-1-1s.44771525-1 1-1h18c.5522847 0 1 .4477153 1 1s-.4477153 1-1 1z"/><path id="Shape" d="m42 51h-15c-.5522847 0-1-.4477153-1-1s.4477153-1 1-1h15c.5522847 0 1 .4477153 1 1s-.4477153 1-1 1z"/></g><path id="Shape" d="m50 54-7 4h-6l7-4z" fill="#2c3e50"/><path id="Shape" d="m55 47-5 7h-6l6-7z" fill="#35495e"/><path id="Shape" d="m57 27c-1.216 14.6-.752 10.013-2 20h-5c1.257-10.053.792-5.5 2-20z" fill="#3f5c6c"/><path id="Shape" d="m57 27h-5l-2-4h5z" fill="#35495e"/><path id="Rectangle-path" d="m50 14h5v9h-5z" fill="#3f5c6c"/><path id="Shape" d="m58 10-3 4h-5l3-4z" fill="#35495e"/><path id="Shape" d="m58 10h-5l-2-6h5z" fill="#3f5c6c"/><path id="Shape" d="m56 4h-5l-7-4h7z" fill="#35495e"/></g></svg>