<svg xmlns="http://www.w3.org/2000/svg" xmlns:xlink="http://www.w3.org/1999/xlink" fill="none" version="1.1" width="138.671875" height="48.900146484375" viewBox="0 0 138.671875 48.900146484375"><g><g><g><path d="M0,0L0,1.932L23.66,1.932L24.66,0L0,0ZM0,13.524L0,15.414L21.66,15.414L21.66,13.524L0,13.524ZM0,29.4L25.66,29.4L24.66,27.468L0,27.468L0,29.4Z" fill="#2773E1" fill-opacity="1"/></g><g><path d="M37.18636221801758,0L36.15999221801758,0L37.18636221801758,1.932L37.18636221801758,27.468L36.15999221801758,29.4L48.820392218017574,29.4Q53.39839221801758,29.4,56.92639221801758,27.51C59.30639221801758,26.25,61.15439221801758,24.514,62.47039221801758,22.302C63.78639221801758,20.062,64.44439221801758,17.528,64.44439221801758,14.7C64.44439221801758,11.872,63.78639221801758,9.35201,62.47039221801758,7.14001C61.15439221801758,4.90001,59.30639221801758,3.15,56.92639221801758,1.89Q53.39839221801758,0,48.820392218017574,0L37.18636221801758,0ZM55.83439221801758,25.872Q52.72639221801758,27.468,48.65239221801758,27.468L39.32836221801758,27.468L39.32836221801758,1.932L48.65239221801758,1.932Q52.72639221801758,1.932,55.83439221801758,3.57Q58.942392218017574,5.16601,60.62239221801758,8.06401C61.74239221801758,9.99601,62.30239221801757,12.208,62.30239221801757,14.7C62.30239221801757,17.192,61.74239221801758,19.404,60.62239221801758,21.336Q58.942392218017574,24.234,55.83439221801758,25.872Z" fill-rule="evenodd" fill="#2773E1" fill-opacity="1"/></g><g><path d="M74.94437408447266,0L74.94437408447266,1.932L98.60437408447265,1.932L99.60437408447265,0L74.94437408447266,0ZM74.94437408447266,13.524L74.94437408447266,15.414L96.60437408447265,15.414L96.60437408447265,13.524L74.94437408447266,13.524ZM74.94437408447266,29.4L100.60437408447265,29.4L99.60437408447265,27.468L74.94437408447266,27.468L74.94437408447266,29.4Z" fill="#2773E1" fill-opacity="1"/></g><g><path d="M111.1043701171875,0C111.1043701171875,0,112.4809201171875,0,112.4809201171875,0C112.4809201171875,0,112.4809201171875,1.932,112.4809201171875,1.932C112.4809201171875,1.932,111.1043701171875,0,111.1043701171875,0ZM138.6719701171875,0C138.6719701171875,0,138.6719701171875,29.4,138.6719701171875,29.4C138.6719701171875,29.4,137.6579701171875,29.4,137.6579701171875,29.4C137.6579701171875,29.4,114.6239801171875,4.239,114.6239801171875,4.239C114.6239801171875,4.239,114.6239801171875,29.4,114.6239801171875,29.4C114.6239801171875,29.4,112.4819801171875,29.4,112.4819801171875,29.4C112.4819801171875,29.4,112.4819801171875,0,112.4819801171875,0C112.4819801171875,0,113.5379801171875,0,113.5379801171875,0C113.5379801171875,0,136.5299701171875,25.35,136.5299701171875,25.35C136.5299701171875,25.35,136.5299701171875,0,136.5299701171875,0C136.5299701171875,0,138.6719701171875,0,138.6719701171875,0Z" fill="#2773E1" fill-opacity="1"/></g></g><g><path d="M1.29600053515625,37.320019672851565L1.29600053515625,45.90003967285156L4.15200853515625,45.90003967285156Q5.48400853515625,45.90003967285156,6.49800853515625,45.34803967285156Q7.51201853515625,44.79603967285156,8.08201853515625,43.82403967285156Q8.65201853515625,42.852029672851565,8.65201853515625,41.60402967285156Q8.65201853515625,40.35602967285156,8.08201853515625,39.390019672851565Q7.51201853515625,38.424019672851564,6.49800853515625,37.872019672851565Q5.48400853515625,37.320019672851565,4.15200853515625,37.320019672851565L1.29600053515625,37.320019672851565ZM4.15200853515625,44.88003967285157L2.44799853515625,44.88003967285157L2.44799853515625,38.34001967285156L4.15200853515625,38.34001967285156Q5.16000853515625,38.34001967285156,5.90400853515625,38.74801967285156Q6.64800853515625,39.15601967285156,7.05001853515625,39.88802967285156Q7.45201853515625,40.620029672851565,7.45201853515625,41.60402967285156Q7.45201853515625,42.58802967285156,7.05001853515625,43.32602967285156Q6.64800853515625,44.064039672851564,5.90400853515625,44.472039672851565Q5.16000853515625,44.88003967285157,4.15200853515625,44.88003967285157ZM13.48799853515625,45.90003967285156L19.28399853515625,45.90003967285156L19.28399853515625,44.90403967285156L14.63999853515625,44.90403967285156L14.63999853515625,42.02402967285156L19.05599853515625,42.02402967285156L19.05599853515625,41.02802967285156L14.63999853515625,41.02802967285156L14.63999853515625,38.31601967285156L19.28399853515625,38.31601967285156L19.28399853515625,37.320019672851565L13.48799853515625,37.320019672851565L13.48799853515625,45.90003967285156ZM24.31209853515625,43.716039672851565L23.49609853515625,44.50803967285157Q24.18009853515625,45.240039672851566,25.10409853515625,45.66603967285156Q26.02809853515625,46.09203967285156,27.21609853515625,46.09203967285156Q28.22409853515625,46.09203967285156,28.99809853515625,45.762039672851564Q29.77209853515625,45.43203967285156,30.21009853515625,44.844039672851565Q30.64809853515625,44.256039672851564,30.64809853515625,43.47602967285156Q30.64809853515625,42.76802967285156,30.30609853515625,42.264029672851564Q29.96409853515625,41.76002967285156,29.22609853515625,41.43002967285156Q28.48809853515625,41.10002967285156,27.28809853515625,40.93202967285156Q26.46009853515625,40.800029672851565,25.96809853515625,40.63202967285156Q25.47609853515625,40.46402967285157,25.26009853515625,40.218029672851564Q25.04409853515625,39.97202967285156,25.04409853515625,39.62402967285156Q25.04409853515625,38.95201967285156,25.62609853515625,38.55001967285156Q26.20809853515625,38.14801967285156,27.12009853515625,38.14801967285156Q27.99609853515625,38.14801967285156,28.62009853515625,38.51401967285156Q29.24409853515625,38.88001967285156,29.73609853515625,39.492029672851565L30.54009853515625,38.71201967285156Q29.90409853515625,37.98001967285156,29.05809853515625,37.55401967285156Q28.21209853515625,37.128019672851565,27.12009853515625,37.128019672851565Q26.17209853515625,37.128019672851565,25.43409853515625,37.44601967285156Q24.69609853515625,37.76401967285156,24.27609853515625,38.34001967285156Q23.85609853515625,38.91601967285156,23.85609853515625,39.660029672851564Q23.85609853515625,40.29602967285156,24.18009853515625,40.75802967285156Q24.50409853515625,41.22002967285156,25.21209853515625,41.520029672851564Q25.92009853515625,41.82002967285156,27.09609853515625,42.00002967285156Q28.39209853515625,42.19202967285156,28.92609853515625,42.54602967285156Q29.46009853515625,42.90002967285156,29.46009853515625,43.51202967285156Q29.46009853515625,43.98003967285156,29.17209853515625,44.32803967285156Q28.88409853515625,44.67603967285156,28.38009853515625,44.874039672851566Q27.87609853515625,45.07203967285156,27.21609853515625,45.07203967285156Q26.62809853515625,45.07203967285156,26.10009853515625,44.90403967285156Q25.57209853515625,44.73603967285156,25.11609853515625,44.436039672851564Q24.66009853515625,44.13603967285157,24.31209853515625,43.716039672851565ZM36.63609853515625,45.90003967285156L35.48409853515625,45.90003967285156L35.48409853515625,37.320019672851565L36.63609853515625,37.320019672851565L36.63609853515625,45.90003967285156ZM48.67209853515625,45.90003967285156L49.76409853515625,45.90003967285156L49.76409853515625,41.364029672851565L45.90009853515625,41.364029672851565L45.90009853515625,42.336029672851566L48.66009853515625,42.336029672851566L48.66009853515625,43.72387967285157Q48.33199853515625,44.295839672851564,47.70609853515625,44.652039672851565Q46.96809853515625,45.07203967285156,46.00809853515625,45.07203967285156Q45.03609853515625,45.07203967285156,44.28609853515625,44.622039672851564Q43.53609853515625,44.17203967285156,43.11609853515625,43.38602967285156Q42.69609853515625,42.60002967285156,42.69609853515625,41.60402967285156Q42.69609853515625,40.608029672851565,43.11609853515625,39.834029672851564Q43.53609853515625,39.06001967285156,44.28009853515625,38.610019672851564Q45.02409853515625,38.16001967285156,45.96009853515625,38.16001967285156Q46.86009853515625,38.16001967285156,47.53809853515625,38.53201967285156Q48.21609853515625,38.90401967285156,48.66009853515625,39.52802967285156L49.46409853515625,38.74801967285156Q48.87609853515625,38.00401967285156,47.97609853515625,37.56601967285156Q47.07609853515625,37.128019672851565,45.96009853515625,37.128019672851565Q45.00009853515625,37.128019672851565,44.18409853515625,37.46401967285156Q43.36809853515625,37.80001967285156,42.76209853515625,38.40601967285156Q42.15609853515625,39.012019672851565,41.82009853515625,39.828029672851564Q41.48409853515625,40.64402967285156,41.48409853515625,41.60402967285156Q41.48409853515625,42.57602967285156,41.81409853515625,43.398029672851564Q42.14409853515625,44.22003967285156,42.75009853515625,44.826039672851564Q43.35609853515625,45.43203967285156,44.16609853515625,45.762039672851564Q44.97609853515625,46.09203967285156,45.92409853515625,46.09203967285156Q46.86009853515625,46.09203967285156,47.62209853515625,45.72603967285156Q48.26429853515625,45.41753967285156,48.67209853515625,44.90883967285156L48.67209853515625,45.90003967285156ZM54.64809853515625,45.90003967285156L55.76409853515625,45.90003967285156L55.76409853515625,39.00199967285156L60.45609853515625,45.90003967285156L61.69209853515625,45.90003967285156L61.69209853515625,37.320019672851565L60.57609853515625,37.320019672851565L60.57609853515625,44.23453967285156L55.88409853515625,37.320019672851565L54.64809853515625,37.320019672851565L54.64809853515625,45.90003967285156ZM72.69619853515626,43.716039672851565L71.88019853515625,44.50803967285157Q72.56419853515625,45.240039672851566,73.48819853515624,45.66603967285156Q74.41219853515625,46.09203967285156,75.60019853515625,46.09203967285156Q76.60819853515625,46.09203967285156,77.38219853515625,45.762039672851564Q78.15619853515625,45.43203967285156,78.59419853515625,44.844039672851565Q79.03219853515625,44.256039672851564,79.03219853515625,43.47602967285156Q79.03219853515625,42.76802967285156,78.69019853515626,42.264029672851564Q78.34819853515626,41.76002967285156,77.61019853515624,41.43002967285156Q76.87219853515624,41.10002967285156,75.67219853515626,40.93202967285156Q74.84419853515625,40.800029672851565,74.35219853515625,40.63202967285156Q73.86019853515624,40.46402967285157,73.64419853515625,40.218029672851564Q73.42819853515626,39.97202967285156,73.42819853515626,39.62402967285156Q73.42819853515626,38.95201967285156,74.01019853515625,38.55001967285156Q74.59219853515626,38.14801967285156,75.50419853515625,38.14801967285156Q76.38019853515625,38.14801967285156,77.00419853515625,38.51401967285156Q77.62819853515624,38.88001967285156,78.12019853515625,39.492029672851565L78.92419853515625,38.71201967285156Q78.28819853515625,37.98001967285156,77.44219853515625,37.55401967285156Q76.59619853515625,37.128019672851565,75.50419853515625,37.128019672851565Q74.55619853515626,37.128019672851565,73.81819853515626,37.44601967285156Q73.08019853515626,37.76401967285156,72.66019853515625,38.34001967285156Q72.24019853515625,38.91601967285156,72.24019853515625,39.660029672851564Q72.24019853515625,40.29602967285156,72.56419853515625,40.75802967285156Q72.88819853515625,41.22002967285156,73.59619853515625,41.520029672851564Q74.30419853515625,41.82002967285156,75.48019853515625,42.00002967285156Q76.77619853515625,42.19202967285156,77.31019853515625,42.54602967285156Q77.84419853515625,42.90002967285156,77.84419853515625,43.51202967285156Q77.84419853515625,43.98003967285156,77.55619853515626,44.32803967285156Q77.26819853515624,44.67603967285156,76.76419853515625,44.874039672851566Q76.26019853515625,45.07203967285156,75.60019853515625,45.07203967285156Q75.01219853515624,45.07203967285156,74.48419853515625,44.90403967285156Q73.95619853515625,44.73603967285156,73.50019853515624,44.436039672851564Q73.04419853515626,44.13603967285157,72.69619853515626,43.716039672851565ZM86.34019853515625,45.90003967285156L87.49219853515625,45.90003967285156L87.49219853515625,42.24002967285156L90.70819853515626,37.320019672851565L89.40019853515625,37.320019672851565L86.92849853515625,41.22499967285156L84.46819853515625,37.320019672851565L83.12419853515625,37.320019672851565L86.34019853515625,42.21602967285156L86.34019853515625,45.90003967285156ZM95.41219853515625,43.716039672851565L94.59619853515625,44.50803967285157Q95.28019853515625,45.240039672851566,96.20419853515625,45.66603967285156Q97.12819853515624,46.09203967285156,98.31619853515625,46.09203967285156Q99.32419853515626,46.09203967285156,100.09819853515626,45.762039672851564Q100.87199853515625,45.43203967285156,101.30999853515625,44.844039672851565Q101.74799853515626,44.256039672851564,101.74799853515626,43.47602967285156Q101.74799853515626,42.76802967285156,101.40599853515624,42.264029672851564Q101.06399853515624,41.76002967285156,100.32619853515625,41.43002967285156Q99.58819853515625,41.10002967285156,98.38819853515625,40.93202967285156Q97.56019853515625,40.800029672851565,97.06819853515626,40.63202967285156Q96.57619853515625,40.46402967285157,96.36019853515624,40.218029672851564Q96.14419853515625,39.97202967285156,96.14419853515625,39.62402967285156Q96.14419853515625,38.95201967285156,96.72619853515624,38.55001967285156Q97.30819853515625,38.14801967285156,98.22019853515626,38.14801967285156Q99.09619853515625,38.14801967285156,99.72019853515626,38.51401967285156Q100.34399853515625,38.88001967285156,100.83599853515625,39.492029672851565L101.63999853515625,38.71201967285156Q101.00399853515626,37.98001967285156,100.15819853515625,37.55401967285156Q99.31219853515626,37.128019672851565,98.22019853515626,37.128019672851565Q97.27219853515625,37.128019672851565,96.53419853515625,37.44601967285156Q95.79619853515625,37.76401967285156,95.37619853515625,38.34001967285156Q94.95619853515625,38.91601967285156,94.95619853515625,39.660029672851564Q94.95619853515625,40.29602967285156,95.28019853515625,40.75802967285156Q95.60419853515624,41.22002967285156,96.31219853515626,41.520029672851564Q97.02019853515625,41.82002967285156,98.19619853515626,42.00002967285156Q99.49219853515625,42.19202967285156,100.02619853515625,42.54602967285156Q100.55999853515625,42.90002967285156,100.55999853515625,43.51202967285156Q100.55999853515625,43.98003967285156,100.27219853515625,44.32803967285156Q99.98419853515625,44.67603967285156,99.48019853515625,44.874039672851566Q98.97619853515624,45.07203967285156,98.31619853515625,45.07203967285156Q97.72819853515625,45.07203967285156,97.20019853515625,44.90403967285156Q96.67219853515626,44.73603967285156,96.21619853515625,44.436039672851564Q95.76019853515625,44.13603967285157,95.41219853515625,43.716039672851565ZM109.99199853515626,38.32801967285156L112.79999853515625,38.32801967285156L112.79999853515625,37.320019672851565L106.04399853515625,37.320019672851565L106.04399853515625,38.32801967285156L108.83999853515625,38.32801967285156L108.83999853515625,45.90003967285156L109.99199853515626,45.90003967285156L109.99199853515626,38.32801967285156ZM117.40799853515625,45.90003967285156L123.20399853515624,45.90003967285156L123.20399853515624,44.90403967285156L118.55999853515625,44.90403967285156L118.55999853515625,42.02402967285156L122.97599853515625,42.02402967285156L122.97599853515625,41.02802967285156L118.55999853515625,41.02802967285156L118.55999853515625,38.31601967285156L123.20399853515624,38.31601967285156L123.20399853515624,37.320019672851565L117.40799853515625,37.320019672851565L117.40799853515625,45.90003967285156ZM131.97599853515624,45.10803967285156L132.83999853515624,45.10803967285156L135.76799853515624,38.99517967285156L135.76799853515624,45.90003967285156L136.88399853515625,45.90003967285156L136.88399853515625,37.320019672851565L135.49199853515626,37.320019672851565L132.42099853515626,43.747159672851566L129.35999853515625,37.320019672851565L127.93199853515625,37.320019672851565L127.93199853515625,45.90003967285156L129.04799853515624,45.90003967285156L129.04799853515624,38.99517967285156L131.97599853515624,45.10803967285156Z" fill="#2773E1" fill-opacity="1"/></g></g></svg>