<svg width="429" height="104.63414634146342" viewBox="0 0 410 100" class="looka-1j8o68f">
  <defs id="SvgjsDefs5685">
    <linearGradient id="SvgjsLinearGradient5692">
      <stop id="SvgjsStop5693" stop-color="#ee2a7b" offset="0"></stop>
      <stop id="SvgjsStop5694" stop-color="#ff7db8" offset="1"></stop>
    </linearGradient>
  </defs>
  <g id="SvgjsG5686" featurekey="rootContainer" transform="matrix(1,0,0,1,0,0)" fill="#272839">
    <rect xmlns="http://www.w3.org/2000/svg" width="410" height="100" rx="10" ry="10"></rect>
  </g>
  <g id="SvgjsG5687" featurekey="odWo6G-0"
    transform="matrix(0.6704980842911877,0,0,0.6704980842911877,16.64750957854406,16.64750957854406)"
    fill="url(#SvgjsLinearGradient5692)">
    <path xmlns="http://www.w3.org/2000/svg" fill="url(#SvgjsLinearGradient5692)"
      d="M95,52c0-12.871-5.692-24.431-14.682-32.318C72.431,10.692,60.871,5,48,5C24.29,5,5,24.29,5,48  c0,12.868,5.69,24.426,14.677,32.313C27.564,89.306,39.126,95,52,95c0.084,0,0.166-0.006,0.25-0.006S52.416,95,52.5,95  C75.972,95,95,75.972,95,52.5c0-0.084-0.006-0.166-0.006-0.25S95,52.084,95,52z M21.828,73.371  c-4.245-5.978-6.77-13.259-6.822-21.121c0.135-20.511,16.732-37.109,37.244-37.244c7.862,0.052,15.144,2.577,21.121,6.822  C80.224,28.473,84.5,37.758,84.5,48c0,20.126-16.374,36.5-36.5,36.5C37.758,84.5,28.473,80.224,21.828,73.371z M6,48  C6,24.841,24.841,6,48,6c9.858,0,18.926,3.422,26.1,9.13C67.637,11.242,60.076,9,52,9C28.29,9,9,28.29,9,52  c0,8.074,2.241,15.633,6.127,22.095C9.421,66.923,6,57.856,6,48z M52,89c-10.08,0-19.227-4.055-25.905-10.615  C32.269,82.854,39.838,85.5,48,85.5c20.678,0,37.5-16.822,37.5-37.5c0-8.162-2.646-15.731-7.115-21.905  C84.945,32.773,89,41.92,89,52C89,72.402,72.402,89,52,89z"></path>
  </g>
  <g id="SvgjsG5688" featurekey="VGK2BT-0"
    transform="matrix(2.450136774005274,0,0,2.450136774005274,96.61881038731869,18.818263875455724)"
    fill="#ffffff">
    <path
      d="M7.84 5.720000000000001 c1.52 0 2.72 0.41334 3.6 1.24 s1.32 1.94 1.32 3.34 c0 1.4133 -0.44 2.53 -1.32 3.35 s-2.0734 1.23 -3.58 1.23 l-3.34 0 l0 5.12 l-3.14 0 l0 -14.28 l6.46 0 z M7.02 12.440000000000001 c0.90666 0 1.5833 -0.16666 2.03 -0.5 s0.67 -0.88 0.67 -1.64 c0 -0.73334 -0.21666 -1.2733 -0.65 -1.62 s-1.11 -0.52 -2.03 -0.52 l-2.52 0 l0 4.28 l2.5 0 z M17.34 5.720000000000001 l0 14.28 l-2.84 0 l0 -14.28 l2.84 0 z M24.34 9.38 c3.0134 0.01334 4.52 0.9933 4.52 2.94 l0 5.48 c0 1.0133 0.12 1.7467 0.36 2.2 l-2.88 0 c-0.10666 -0.32 -0.17332 -0.65334 -0.19998 -1 c-0.84 0.85334 -2 1.28 -3.48 1.28 c-1.08 0 -1.9367 -0.27334 -2.57 -0.82 s-0.95 -1.3067 -0.95 -2.28 c0 -0.94666 0.3 -1.68 0.9 -2.2 c0.61334 -0.54666 1.7267 -0.89332 3.34 -1.04 c1.1467 -0.12 1.8733 -0.27 2.18 -0.45 s0.46 -0.45666 0.46 -0.83 c0 -0.46666 -0.14 -0.81332 -0.42 -1.04 s-0.74666 -0.34 -1.4 -0.34 c-0.6 0 -1.0533 0.12334 -1.36 0.37 s-0.48666 0.64332 -0.54 1.19 l-2.84 0 c0.06666 -1.1333 0.53332 -1.9933 1.4 -2.58 s2.0266 -0.88 3.48 -0.88 z M21.98 17.06 c0 0.88 0.58 1.32 1.74 1.32 c1.52 -0.01334 2.2866 -0.79334 2.3 -2.34 l0 -1.1 c-0.22666 0.22666 -0.8 0.39332 -1.72 0.49998 c-0.8 0.09334 -1.3867 0.25668 -1.76 0.49002 s-0.56 0.61 -0.56 1.13 z M37 9.38 c1.32 0 2.2766 0.33338 2.87 1 s0.89 1.7267 0.89 3.18 l0 6.44 l-2.84 0 l0 -5.86 c0 -0.85334 -0.13666 -1.4867 -0.41 -1.9 s-0.74334 -0.62 -1.41 -0.62 c-0.77334 0 -1.3333 0.23334 -1.68 0.7 s-0.52 1.2333 -0.52 2.3 l0 5.38 l-2.84 0 l0 -10.34 l2.7 0 l0 1.44 l0.06 0 c0.70666 -1.1467 1.7667 -1.72 3.18 -1.72 z M47.68000000000001 9.38 c3.0134 0.01334 4.52 0.9933 4.52 2.94 l0 5.48 c0 1.0133 0.12 1.7467 0.36 2.2 l-2.88 0 c-0.10666 -0.32 -0.17332 -0.65334 -0.19998 -1 c-0.84 0.85334 -2 1.28 -3.48 1.28 c-1.08 0 -1.9367 -0.27334 -2.57 -0.82 s-0.95 -1.3067 -0.95 -2.28 c0 -0.94666 0.3 -1.68 0.9 -2.2 c0.61334 -0.54666 1.7267 -0.89332 3.34 -1.04 c1.1467 -0.12 1.8733 -0.27 2.18 -0.45 s0.46 -0.45666 0.46 -0.83 c0 -0.46666 -0.14 -0.81332 -0.42 -1.04 s-0.74666 -0.34 -1.4 -0.34 c-0.6 0 -1.0533 0.12334 -1.36 0.37 s-0.48666 0.64332 -0.54 1.19 l-2.84 0 c0.06666 -1.1333 0.53332 -1.9933 1.4 -2.58 s2.0266 -0.88 3.48 -0.88 z M45.32 17.06 c0 0.88 0.58 1.32 1.74 1.32 c1.52 -0.01334 2.2866 -0.79334 2.3 -2.34 l0 -1.1 c-0.22666 0.22666 -0.8 0.39332 -1.72 0.49998 c-0.8 0.09334 -1.3867 0.25668 -1.76 0.49002 s-0.56 0.61 -0.56 1.13 z M65.18 5.380000000000001 c1.7467 0 3.1366 0.40002 4.17 1.2 s1.55 1.9333 1.55 3.4 l-3.04 0 c-0.04 -0.72 -0.28334 -1.26 -0.73 -1.62 s-1.1367 -0.54 -2.07 -0.54 c-0.65334 0 -1.18 0.14334 -1.58 0.43 s-0.6 0.68332 -0.6 1.19 c0 0.41334 0.12334 0.71334 0.37 0.9 s0.59666 0.35332 1.05 0.49998 s1.2467 0.36 2.38 0.64 c1.1867 0.29334 2.1 0.61334 2.74 0.96 s1.1267 0.79 1.46 1.33 s0.5 1.2033 0.5 1.99 c0 0.90666 -0.24 1.7133 -0.72 2.42 s-1.18 1.2433 -2.1 1.61 s-1.96 0.55 -3.12 0.55 c-1.7733 0 -3.23 -0.44334 -4.37 -1.33 s-1.71 -2.1034 -1.71 -3.65 l0 -0.1 l3.04 0 c0 0.84 0.28666 1.49 0.86 1.95 s1.3333 0.69 2.28 0.69 c0.84 0 1.5167 -0.15 2.03 -0.45 s0.77 -0.74334 0.77 -1.33 c0 -0.38666 -0.14 -0.71332 -0.42 -0.97998 s-0.65334 -0.48332 -1.12 -0.64998 s-1.2533 -0.37666 -2.36 -0.63 c-1.28 -0.32 -2.2134 -0.66 -2.8 -1.02 s-1.0333 -0.79666 -1.34 -1.31 s-0.46 -1.13 -0.46 -1.85 c0 -0.89334 0.25666 -1.6733 0.77 -2.34 s1.1833 -1.16 2.01 -1.48 s1.68 -0.48 2.56 -0.48 z M76.54000000000002 6.5600000000000005 l0.000019531 3.1 l2.08 0 l0 1.9 l-2.08 0 l0 5.12 c0 0.48 0.08 0.8 0.24 0.96 s0.48 0.24 0.96 0.24 c0.34666 0 0.64 -0.02666 0.88 -0.08 l0 2.22 c-0.4 0.06666 -0.96 0.1 -1.68 0.1 c-1.0933 0 -1.9067 -0.18666 -2.44 -0.56 s-0.8 -1.02 -0.8 -1.94 l0 -6.06 l-1.72 0 l0 -1.9 l1.72 0 l0 -3.1 l2.84 0 z M82.82000000000002 9.66 l0 5.86 c0 0.8 0.12666 1.42 0.38 1.86 s0.73334 0.66 1.44 0.66 c0.78666 0 1.35 -0.23334 1.69 -0.7 s0.51 -1.2133 0.51 -2.24 l0 -5.44 l2.84 0 l0 10.34 l-2.7 0 l0 -1.44 l-0.06 0 c-0.70666 1.1467 -1.7667 1.72 -3.18 1.72 c-1.3467 0 -2.31 -0.34334 -2.89 -1.03 s-0.87 -1.7433 -0.87 -3.17 l0 -6.42 l2.84 0 z M101.92000000000002 5.720000000000001 l0 14.28 l-2.7 0 l0 -1.32 l-0.04 0 c-0.61334 1.0667 -1.66 1.6 -3.14 1.6 c-1.4267 0 -2.5566 -0.52 -3.39 -1.56 s-1.25 -2.3666 -1.25 -3.98 c0 -1.5733 0.42334 -2.86 1.27 -3.86 s1.95 -1.5 3.31 -1.5 c0.62666 0 1.2167 0.13 1.77 0.39 s0.98334 0.64334 1.29 1.15 l0.04 0 l0 -5.2 l2.84 0 z M94.24000000000002 14.82 c0 0.94666 0.22332 1.7367 0.66998 2.37 s1.0567 0.95 1.83 0.95 c0.81334 0 1.4233 -0.29666 1.83 -0.89 s0.61 -1.41 0.61 -2.45 s-0.21334 -1.8467 -0.64 -2.42 s-1.0333 -0.86 -1.82 -0.86 c-0.81334 0 -1.43 0.3 -1.85 0.9 s-0.63 1.4 -0.63 2.4 z M106.98000000000002 5.720000000000001 l0 2.34 l-2.84 0 l0 -2.34 l2.84 0 z M106.98000000000002 9.66 l0 10.34 l-2.84 0 l0 -10.34 l2.84 0 z M114.24000000000001 9.38 c1.6533 0 2.96 0.50334 3.92 1.51 s1.44 2.3234 1.44 3.95 c0 1.64 -0.49 2.9566 -1.47 3.95 s-2.2766 1.49 -3.89 1.49 c-1.64 0 -2.94 -0.50334 -3.9 -1.51 s-1.44 -2.3166 -1.44 -3.93 c0 -1.6667 0.49 -2.9934 1.47 -3.98 s2.27 -1.48 3.87 -1.48 z M111.74000000000001 14.84 c0 1.0533 0.21334 1.8666 0.64 2.44 s1.0467 0.86 1.86 0.86 c0.84 0 1.47 -0.29334 1.89 -0.88 s0.63 -1.3933 0.63 -2.42 c0 -1.0667 -0.21666 -1.8867 -0.65 -2.46 s-1.0633 -0.86 -1.89 -0.86 c-0.8 0 -1.4133 0.28666 -1.84 0.86 s-0.64 1.3933 -0.64 2.46 z"></path>
  </g>
</svg>
