<?xml version="1.0" encoding="UTF-8"?>
<svg id="_图层_1" data-name="图层 1" xmlns="http://www.w3.org/2000/svg" xmlns:xlink="http://www.w3.org/1999/xlink" viewBox="0 0 429 104.63">
  <defs>
    <style>
      .cls-1 {
        fill: url(#_未命名的渐变);
      }

      .cls-1, .cls-2, .cls-3 {
        stroke-width: 0px;
      }

      .cls-2 {
        fill: #fff;
      }

      .cls-3 {
        fill: #272839;
      }
    </style>
    <linearGradient id="_未命名的渐变" data-name="未命名的渐变" x1="-460.59" y1="431.26" x2="-459.59" y2="431.26" gradientTransform="translate(29103.05 27282.67) scale(63.14 -63.14)" gradientUnits="userSpaceOnUse">
      <stop offset="0" stop-color="#ee2a7b"/>
      <stop offset="1" stop-color="#ff7db8"/>
    </linearGradient>
  </defs>
  <g id="SvgjsG5686">
    <rect class="cls-3" width="429" height="104.63" rx="10.46" ry="10.46"/>
  </g>
  <g id="SvgjsG5687">
    <path class="cls-1" d="M84.07,53.9c0-9.03-3.99-17.14-10.3-22.67-5.53-6.31-13.64-10.3-22.67-10.3-16.63,0-30.17,13.53-30.17,30.17,0,9.03,3.99,17.14,10.3,22.67,5.53,6.31,13.64,10.3,22.68,10.3.06,0,.12,0,.18,0s.12,0,.18,0c16.47,0,29.82-13.35,29.82-29.82,0-.06,0-.12,0-.18s0-.12,0-.18ZM32.73,68.89c-2.98-4.19-4.75-9.3-4.79-14.82.09-14.39,11.74-26.03,26.13-26.13,5.52.04,10.62,1.81,14.82,4.79,4.81,4.66,7.81,11.18,7.81,18.36,0,14.12-11.49,25.61-25.61,25.61-7.19,0-13.7-3-18.36-7.81ZM21.63,51.09c0-16.25,13.22-29.47,29.47-29.47,6.92,0,13.28,2.4,18.31,6.41-4.53-2.73-9.84-4.3-15.5-4.3-16.63,0-30.17,13.53-30.17,30.17,0,5.66,1.57,10.97,4.3,15.5-4-5.03-6.4-11.39-6.4-18.31ZM53.9,79.86c-7.07,0-13.49-2.84-18.17-7.45,4.33,3.14,9.64,4.99,15.37,4.99,14.51,0,26.31-11.8,26.31-26.31,0-5.73-1.86-11.04-4.99-15.37,4.6,4.69,7.45,11.1,7.45,18.17,0,14.31-11.64,25.96-25.96,25.96Z"/>
  </g>
  <g id="SvgjsG5688">
    <path class="cls-2" d="M121.2,34.35c3.9,0,6.97,1.06,9.23,3.18s3.38,4.97,3.38,8.56-1.13,6.49-3.38,8.59-5.32,3.15-9.18,3.15h-8.56v13.13h-8.05v-36.61s16.56,0,16.56,0ZM119.09,51.58c2.32,0,4.06-.43,5.2-1.28s1.72-2.26,1.72-4.2-.56-3.26-1.67-4.15-2.85-1.33-5.2-1.33h-6.46v10.97s6.41,0,6.41,0ZM145.55,34.35v36.61h-7.28v-36.61s7.28,0,7.28,0ZM163.5,43.74c7.73.03,11.59,2.55,11.59,7.54v14.05c0,2.6.31,4.48.92,5.64h-7.38c-.27-.82-.44-1.67-.51-2.56-2.15,2.19-5.13,3.28-8.92,3.28-2.77,0-4.97-.7-6.59-2.1s-2.44-3.35-2.44-5.85.77-4.31,2.31-5.64c1.57-1.4,4.43-2.29,8.56-2.67,2.94-.31,4.8-.69,5.59-1.15s1.18-1.17,1.18-2.13c0-1.2-.36-2.09-1.08-2.67s-1.91-.87-3.59-.87c-1.54,0-2.7.32-3.49.95s-1.25,1.65-1.38,3.05h-7.28c.17-2.91,1.37-5.11,3.59-6.61s5.2-2.26,8.92-2.26h0ZM157.45,63.43c0,2.26,1.49,3.38,4.46,3.38,3.9-.03,5.86-2.03,5.9-6v-2.82c-.58.58-2.05,1.01-4.41,1.28-2.05.24-3.56.66-4.51,1.26s-1.44,1.56-1.44,2.9ZM195.95,43.74c3.38,0,5.84.85,7.36,2.56s2.28,4.43,2.28,8.15v16.51h-7.28v-15.02c0-2.19-.35-3.81-1.05-4.87s-1.91-1.59-3.61-1.59c-1.98,0-3.42.6-4.31,1.79s-1.33,3.16-1.33,5.9v13.79h-7.28v-26.51h6.92v3.69h.15c1.81-2.94,4.53-4.41,8.15-4.41ZM223.33,43.74c7.73.03,11.59,2.55,11.59,7.54v14.05c0,2.6.31,4.48.92,5.64h-7.38c-.27-.82-.44-1.67-.51-2.56-2.15,2.19-5.13,3.28-8.92,3.28-2.77,0-4.97-.7-6.59-2.1s-2.44-3.35-2.44-5.85.77-4.31,2.31-5.64c1.57-1.4,4.43-2.29,8.56-2.67,2.94-.31,4.8-.69,5.59-1.15s1.18-1.17,1.18-2.13c0-1.2-.36-2.09-1.08-2.67s-1.91-.87-3.59-.87c-1.54,0-2.7.32-3.49.95s-1.25,1.65-1.38,3.05h-7.28c.17-2.91,1.37-5.11,3.59-6.61s5.2-2.26,8.92-2.26h0ZM217.28,63.43c0,2.26,1.49,3.38,4.46,3.38,3.9-.03,5.86-2.03,5.9-6v-2.82c-.58.58-2.05,1.01-4.41,1.28-2.05.24-3.56.66-4.51,1.26s-1.44,1.56-1.44,2.9ZM268.2,33.48c4.48,0,8.04,1.03,10.69,3.08s3.97,4.96,3.97,8.72h-7.79c-.1-1.85-.73-3.23-1.87-4.15s-2.91-1.38-5.31-1.38c-1.67,0-3.03.37-4.05,1.1s-1.54,1.75-1.54,3.05c0,1.06.32,1.83.95,2.31s1.53.91,2.69,1.28,3.2.92,6.1,1.64c3.04.75,5.38,1.57,7.02,2.46s2.89,2.03,3.74,3.41,1.28,3.08,1.28,5.1c0,2.32-.62,4.39-1.85,6.2s-3.03,3.19-5.38,4.13-5.02,1.41-8,1.41c-4.55,0-8.28-1.14-11.2-3.41s-4.38-5.39-4.38-9.36v-.26h7.79c0,2.15.73,3.82,2.2,5s3.42,1.77,5.85,1.77c2.15,0,3.89-.38,5.2-1.15s1.97-1.91,1.97-3.41c0-.99-.36-1.83-1.08-2.51s-1.67-1.24-2.87-1.67-3.21-.97-6.05-1.62c-3.28-.82-5.67-1.69-7.18-2.61s-2.65-2.04-3.44-3.36-1.18-2.9-1.18-4.74c0-2.29.66-4.29,1.97-6s3.03-2.97,5.15-3.79,4.31-1.23,6.56-1.23h0ZM297.32,36.51v7.95h5.33v4.87h-5.33v13.13c0,1.23.21,2.05.62,2.46s1.23.62,2.46.62c.89,0,1.64-.07,2.26-.21v5.69c-1.03.17-2.46.26-4.31.26-2.8,0-4.89-.48-6.26-1.44s-2.05-2.61-2.05-4.97v-15.54h-4.41v-4.87h4.41v-7.95h7.28,0ZM313.42,44.46v15.02c0,2.05.32,3.64.97,4.77s1.88,1.69,3.69,1.69c2.02,0,3.46-.6,4.33-1.79s1.31-3.11,1.31-5.74v-13.95h7.28v26.51h-6.92v-3.69h-.15c-1.81,2.94-4.53,4.41-8.15,4.41s-5.92-.88-7.41-2.64-2.23-4.47-2.23-8.13v-16.46s7.28,0,7.28,0ZM362.39,34.35v36.61h-6.92v-3.38h-.1c-1.57,2.73-4.26,4.1-8.05,4.1s-6.55-1.33-8.69-4-3.2-6.07-3.2-10.2,1.09-7.33,3.26-9.9,5-3.85,8.49-3.85c1.61,0,3.12.33,4.54,1s2.52,1.65,3.31,2.95h.1v-13.33h7.28ZM342.7,57.68c0,2.43.57,4.45,1.72,6.08s2.71,2.44,4.69,2.44c2.09,0,3.65-.76,4.69-2.28s1.56-3.61,1.56-6.28-.55-4.73-1.64-6.2-2.65-2.2-4.67-2.2-3.67.77-4.74,2.31-1.62,3.59-1.62,6.15h0ZM375.36,34.35v6h-7.28v-6s7.28,0,7.28,0ZM375.36,44.46v26.51h-7.28v-26.51h7.28ZM393.97,43.74c4.24,0,7.59,1.29,10.05,3.87s3.69,5.96,3.69,10.13-1.26,7.58-3.77,10.13c-2.51,2.55-5.84,3.82-9.97,3.82s-7.54-1.29-10-3.87-3.69-5.94-3.69-10.08,1.26-7.67,3.77-10.2,5.82-3.79,9.92-3.79ZM387.56,57.74c0,2.7.55,4.79,1.64,6.26s2.68,2.2,4.77,2.2,3.77-.75,4.85-2.26,1.62-3.57,1.62-6.2-.56-4.84-1.67-6.31-2.73-2.2-4.85-2.2-3.62.73-4.72,2.2-1.64,3.57-1.64,6.31Z"/>
  </g>
</svg>