<?xml version="1.0" encoding="UTF-8"?>
<!-- Generator: Adobe Illustrator 25.4.1, SVG Export Plug-In . SVG Version: 6.00 Build 0)  -->
<svg xmlns="http://www.w3.org/2000/svg" xmlns:xlink="http://www.w3.org/1999/xlink" version="1.1" id="Capa_1" x="0px" y="0px" viewBox="0 0 512 512" style="enable-background:new 0 0 512 512;" xml:space="preserve" width="512" height="512">
<g>
	<path style="fill:#FFFFFF;" d="M361.845,368.791l2.956-7.722c8.381-21.874,32.313-39.805,54.516-40.826l40.9-2.363   c1.869-0.082,3.664-1.457,4.281-3.277c0.395-1.169,0.247-2.396-0.411-3.351c-0.626-0.906-1.647-1.465-2.807-1.523l-39.36-2.363   c-9.747-0.461-17.774-4.421-22.59-11.172c-5.236-7.319-6.397-17.272-3.277-28.048l7.261-25.077c0.268-0.933,0.973-1.65,1.858-1.96   l-0.094-0.054l-10.588-4.644c0.005,0.803-0.126,1.605-0.419,2.361l-10.628,27.769c-8.381,21.874-32.313,39.813-54.418,40.826   l-186.354,2.363c-1.877,0.082-3.68,1.457-4.289,3.277c-0.395,1.169-0.247,2.388,0.395,3.334c0.634,0.922,1.663,1.482,2.906,1.548   l184.641,2.354c9.748,0.461,17.775,4.429,22.59,11.172c5.236,7.319,6.397,17.28,3.277,28.057l-2.618,9.056   c-0.55,1.886-2.266,3.176-4.217,3.22l18.429,0.002C362.308,371.677,361.307,370.188,361.845,368.791z"/>
	<path style="fill:#F48120;" d="M349.573,368.528l2.618-9.056c3.12-10.776,1.959-20.738-3.277-28.057   c-4.816-6.742-12.843-10.711-22.59-11.172l-184.641-2.354c-1.243-0.066-2.272-0.626-2.906-1.548   c-0.642-0.947-0.79-2.165-0.395-3.334c0.609-1.819,2.412-3.194,4.289-3.277l186.354-2.363   c22.104-1.013,46.037-18.952,54.418-40.826l10.628-27.769c0.293-0.756,0.425-1.557,0.419-2.361   c-0.003-0.439-0.035-0.878-0.131-1.311c-12.077-54.278-60.51-94.865-118.426-94.865c-53.364,0-98.676,34.445-114.928,82.318   c-10.488-7.87-23.908-12.053-38.331-10.612c-25.603,2.544-46.177,23.158-48.721,48.762c-0.667,6.644-0.123,13.057,1.408,19.083   C33.539,281.007,0,315.271,0,357.389c0,3.812,0.288,7.558,0.823,11.221c0.264,1.778,1.762,3.112,3.557,3.112l340.88,0.041   c0.034,0,0.064-0.015,0.097-0.016C347.307,371.703,349.023,370.413,349.573,368.528z"/>
	<path style="fill:#FAAD3F;" d="M411.085,240.807c-1.712,0-3.417,0.049-5.113,0.132c-0.28,0.015-0.546,0.082-0.801,0.172   c-0.885,0.31-1.59,1.027-1.858,1.96l-7.261,25.077c-3.12,10.776-1.959,20.73,3.277,28.048c4.816,6.751,12.843,10.711,22.59,11.172   l39.36,2.363c1.161,0.058,2.182,0.617,2.807,1.523c0.658,0.955,0.807,2.182,0.411,3.351c-0.617,1.819-2.412,3.194-4.281,3.277   l-40.9,2.363c-22.204,1.021-46.136,18.952-54.516,40.826l-2.956,7.722c-0.538,1.397,0.463,2.886,1.941,2.958   c0.037,0.002,0.071,0.014,0.109,0.014h140.728c1.679,0,3.178-1.095,3.631-2.709c2.445-8.694,3.746-17.856,3.746-27.332   C512,285.987,466.819,240.807,411.085,240.807z"/>
</g>















</svg>
