<svg width="56" height="42" viewBox="0 0 56 42" fill="none" xmlns="http://www.w3.org/2000/svg">
<path d="M30 42.0001V30.0001H38L28 18.0001L18 30.0001H26V42.0001H15C10.8 41.8001 7.20001 40.4001 4.40001 37.6001C1.60001 34.8001 0.200011 31.2001 1.14441e-05 27.0001C1.14441e-05 23.0001 1.40001 19.8001 3.80001 17.0001C6.20001 14.2001 9.40001 12.6001 13.2 12.2001C14 8.60006 15.6 5.60006 18.4 3.40006C21.2 1.20006 24.4 6.10352e-05 28 6.10352e-05C31.6 6.10352e-05 34.8 1.20006 37.6 3.40006C40.4 5.60006 42 8.60006 42.8 12.2001C46.6 12.6001 49.8 14.4001 52.2 17.0001C54.6 19.8001 56 23.0001 56 27.0001C55.8 31.2001 54.4 34.8001 51.6 37.6001C48.8 40.4001 45.2 41.8001 41 42.0001H30Z" fill="#C0C4CC"/>
</svg>
