<svg fill="none" height="512" viewBox="0 0 24 24" width="512" xmlns="http://www.w3.org/2000/svg"><path clip-rule="evenodd" d="m4.22676 4.22676c.30234-.30235.79253-.30235 1.09487 0l6.67837 6.67834 6.6784-6.67834c.3023-.30235.7925-.30235 1.0948 0 .3024.30234.3024.79253 0 1.09487l-6.6783 6.67837 6.6783 6.6784c.3024.3023.3024.7925 0 1.0948-.3023.3024-.7925.3024-1.0948 0l-6.6784-6.6783-6.67837 6.6783c-.30234.3024-.79253.3024-1.09487 0-.30235-.3023-.30235-.7925 0-1.0948l6.67834-6.6784-6.67834-6.67837c-.30235-.30234-.30235-.79253 0-1.09487z" fill="rgb(0,0,0)" fill-rule="evenodd"/></svg>