<?xml version="1.0" encoding="UTF-8"?><svg xmlns="http://www.w3.org/2000/svg" viewBox="0 0 512 512"><defs><style>.cls-1{fill:none;}.cls-2{fill:#fff;}</style></defs><g id="BG"><rect class="cls-1" width="512" height="512"/></g><g id="Layer_4"><path class="cls-2" d="m341.91,68.49h-80.34c-12.37,0-20.11,13.39-13.92,24.11l89.7,155.37c2.87,4.97,2.87,11.1,0,16.07l-89.7,155.37c-6.19,10.72,1.55,24.11,13.92,24.11h80.34c5.74,0,11.05-3.06,13.92-8.04l98.98-171.44c2.87-4.97,2.87-11.1,0-16.07l-98.98-171.44c-2.87-4.97-8.18-8.04-13.92-8.04Z"/><path class="cls-2" d="m151.47,68.49h-80.34c-12.37,0-20.11,13.39-13.92,24.11l89.7,155.37c2.87,4.97,2.87,11.1,0,16.07l-89.7,155.37c-6.19,10.72,1.55,24.11,13.92,24.11h80.34c5.74,0,11.05-3.06,13.92-8.04l98.98-171.44c2.87-4.97,2.87-11.1,0-16.07l-98.98-171.44c-2.87-4.97-8.18-8.04-13.92-8.04Z"/></g></svg>