<?xml version="1.0" encoding="UTF-8"?><svg id="Layer_4" xmlns="http://www.w3.org/2000/svg" viewBox="0 0 512 512"><defs><style>.cls-1{fill:#eee;}</style></defs><path class="cls-1" d="m256,144.38c-71.55,0-136.44,39.15-184.32,102.73-3.91,5.21-3.91,12.49,0,17.7,47.88,63.66,112.77,102.81,184.32,102.81s136.44-39.15,184.32-102.73c3.91-5.21,3.91-12.49,0-17.7-47.88-63.66-112.77-102.81-184.32-102.81Zm5.13,190.22c-47.5,2.99-86.72-36.16-83.73-83.73,2.45-39.22,34.24-71.02,73.47-73.47,47.5-2.99,86.72,36.16,83.73,83.73-2.53,39.15-34.32,70.94-73.47,73.47Zm-2.37-36.31c-25.59,1.61-46.73-19.46-45.05-45.05,1.3-21.14,18.46-38.23,39.61-39.61,25.59-1.61,46.73,19.46,45.05,45.05-1.38,21.22-18.54,38.3-39.61,39.61Z"/></svg>