<?xml version="1.0" encoding="UTF-8"?><svg id="Layer_4" xmlns="http://www.w3.org/2000/svg" viewBox="0 0 512 512"><defs><style>.cls-1{fill:#eee;}</style></defs><rect class="cls-1" x="234.48" y="28.67" width="25.46" height="472.24" rx="12.73" ry="12.73" transform="translate(-114.83 252.36) rotate(-45)"/><g><path class="cls-1" d="m258.76,298.29c10.64-.66,20.28-5.34,27.4-12.55l-59.89-59.89c-7.2,7.1-11.9,16.73-12.55,27.4-1.69,25.59,19.46,46.65,45.05,45.05Z"/><path class="cls-1" d="m221.03,185.45c9.11-4.55,19.19-7.39,29.84-8.05,47.5-2.99,86.72,36.16,83.73,83.73-.69,10.62-3.54,20.69-8.1,29.79l42.12,42.12c26.57-17.23,50.76-40.36,71.69-68.16,3.91-5.21,3.91-12.49,0-17.7-47.88-63.66-112.77-102.81-184.32-102.81-22.41,0-44.17,3.84-64.96,11.07l29.99,29.99Z"/><path class="cls-1" d="m311.8,311.38c-13.18,13.28-30.99,21.95-50.67,23.22-47.5,2.99-86.72-36.16-83.73-83.73,1.23-19.72,9.88-37.55,23.16-50.73l-34.26-34.26c-35.66,17.7-67.8,45.64-94.61,81.24-3.91,5.21-3.91,12.49,0,17.7,47.88,63.66,112.77,102.81,184.32,102.81,31.7,0,62.08-7.69,90.26-21.77l-34.46-34.46Z"/><path class="cls-1" d="m253.32,213.64c-1.25.08-2.48.22-3.69.41l48.33,48.33c.19-1.22.33-2.45.41-3.69,1.69-25.59-19.46-46.65-45.05-45.05Z"/></g></svg>