<?xml version="1.0" encoding="UTF-8"?><svg xmlns="http://www.w3.org/2000/svg" viewBox="0 0 512 512"><defs><style>.cls-1{fill:none;}.cls-2{fill:#fff;}</style></defs><g id="BG"><rect class="cls-1" width="512" height="512"/></g><g id="Layer_1"><path class="cls-2" d="m434.67,66.53l-83.12,9.45c-8.49,1.08-12.32,11.6-6.22,17.7l12.32,12.32c3.95,3.95,4.78,10.05.84,13.99l-73.55,73.55c-3.95,3.95-4.31,10.05-.24,14.11l19.38,19.38c3.83,3.83,10.41,3.95,14.35,0l73.55-73.55c3.95-3.95,9.69-3.47,13.63.48l12.32,12.32c5.98,5.98,16.5,2.15,17.46-6.22l10.29-82.05c1.08-6.58-4.43-12.32-11-11.48Z"/><path class="cls-2" d="m76.26,445.51l83.12-9.45c8.49-1.08,12.32-11.6,6.22-17.7l-12.32-12.32c-3.95-3.95-4.78-10.05-.84-13.99l73.55-73.55c3.95-3.95,4.31-10.05.24-14.11l-19.38-19.38c-3.83-3.83-10.41-3.95-14.35,0l-73.55,73.55c-3.95,3.95-9.69,3.47-13.63-.48l-12.32-12.32c-5.98-5.98-16.5-2.15-17.46,6.22l-10.29,82.05c-1.08,6.58,4.43,12.32,11,11.48Z"/></g></svg>