<?xml version="1.0" encoding="UTF-8"?><svg id="Layer_4" xmlns="http://www.w3.org/2000/svg" viewBox="0 0 512 512"><defs><style>.cls-1{fill:#fff;stroke-width:0px;}</style></defs><g id="Line"><path class="cls-1" d="m426.31,239.11h-190.68c-9.64-26.56-38.99-40.28-65.55-30.64-14.25,5.17-25.47,16.39-30.64,30.64h-54.24c-9.42,0-17.06,7.64-17.06,17.06s7.64,17.06,17.06,17.06h54.24c9.64,26.56,38.99,40.28,65.55,30.64,14.25-5.17,25.47-16.39,30.64-30.64h190.68c9.42,0,17.06-7.64,17.06-17.06s-7.64-17.06-17.06-17.06Zm-238.78,34.11c-9.42,0-17.06-7.64-17.06-17.06s7.64-17.06,17.06-17.06,17.06,7.64,17.06,17.06-7.64,17.06-17.06,17.06Zm238.78,85.28h-54.24c-9.64-26.56-38.99-40.28-65.55-30.64-14.25,5.17-25.47,16.39-30.64,30.64H85.19c-9.42,0-17.06,7.64-17.06,17.06s7.64,17.06,17.06,17.06h190.68c9.64,26.56,38.99,40.28,65.55,30.64,14.25-5.17,25.47-16.39,30.64-30.64h54.24c9.42,0,17.06-7.64,17.06-17.06s-7.64-17.06-17.06-17.06Zm-102.33,34.11c-9.42,0-17.06-7.64-17.06-17.06s7.64-17.06,17.06-17.06,17.06,7.64,17.06,17.06-7.64,17.06-17.06,17.06ZM85.19,153.84h190.68c9.64,26.56,38.99,40.28,65.55,30.64,14.25-5.17,25.47-16.39,30.64-30.64h54.24c9.42,0,17.06-7.64,17.06-17.06s-7.64-17.06-17.06-17.06h-54.24c-9.64-26.56-38.99-40.28-65.55-30.64-14.25,5.17-25.47,16.39-30.64,30.64H85.19c-9.42,0-17.06,7.64-17.06,17.06s7.64,17.06,17.06,17.06Zm238.78-34.11c9.42,0,17.06,7.64,17.06,17.06s-7.64,17.06-17.06,17.06-17.06-7.64-17.06-17.06,7.64-17.06,17.06-17.06Z"/></g></svg>