<?xml version="1.0" encoding="UTF-8"?><svg id="Layer_1" xmlns="http://www.w3.org/2000/svg" xmlns:xlink="http://www.w3.org/1999/xlink" viewBox="0 0 1920 269"><defs><style>.cls-1{fill:none;}.cls-2{fill:url(#linear-gradient);}.cls-3{fill:#fff;}.cls-4{fill:#acbecf;}.cls-4,.cls-5,.cls-6,.cls-7{opacity:.27;}.cls-5{fill:#d6e1ea;}.cls-6{fill:#cdd9e7;}.cls-7,.cls-8{fill:#b3c7d6;}.cls-8{opacity:.39;}</style><linearGradient id="linear-gradient" x1="0" y1="135" x2="1920" y2="135" gradientUnits="userSpaceOnUse"><stop offset="0" stop-color="#fff" stop-opacity="0"/><stop offset=".25" stop-color="#fff" stop-opacity=".25"/><stop offset=".49" stop-color="#fff"/><stop offset=".75" stop-color="#fff" stop-opacity=".24"/><stop offset="1" stop-color="#fff" stop-opacity="0"/></linearGradient></defs><rect class="cls-3" width="1920" height="269"/><g><polygon class="cls-1" points="765.35 0 941.07 269 978.58 269 1154.29 0 765.35 0"/><polygon class="cls-1" points="1514.85 0 1514.85 0 1488.98 39.6 1463.11 0 1463.11 0 1488.98 39.6 1514.85 0"/><polygon class="cls-1" points="456.53 0 456.53 0 430.66 39.6 404.79 0 404.79 0 430.66 39.6 456.53 0"/><polygon class="cls-7" points="430.66 39.6 404.79 0 251.79 0 354.16 156.72 430.66 39.6"/><polygon class="cls-8" points="110.85 0 56.11 0 83.48 41.9 110.85 0"/><polygon class="cls-4" points="56.11 0 0 0 0 169.7 83.48 41.9 56.11 0"/><polygon class="cls-8" points="56.11 0 0 0 0 169.7 83.48 41.9 56.11 0"/><polygon class="cls-7" points="251.79 0 110.85 0 83.48 41.9 231.82 269 280.82 269 354.16 156.72 251.79 0"/><polygon class="cls-8" points="251.79 0 110.85 0 83.48 41.9 231.82 269 280.82 269 354.16 156.72 251.79 0"/><polygon class="cls-4" points="0 169.7 0 269 231.82 269 83.48 41.9 0 169.7"/><polygon class="cls-7" points="0 169.7 0 269 231.82 269 83.48 41.9 0 169.7"/><polygon class="cls-8" points="0 169.7 0 269 231.82 269 83.48 41.9 0 169.7"/><polygon class="cls-6" points="497.54 141.99 590.29 0 456.53 0 430.66 39.6 497.54 141.99"/><polygon class="cls-7" points="354.16 156.72 421.04 259.1 497.54 141.99 430.66 39.6 354.16 156.72"/><polygon class="cls-6" points="354.16 156.72 421.04 259.1 497.54 141.99 430.66 39.6 354.16 156.72"/><polygon class="cls-7" points="354.16 156.72 280.82 269 414.58 269 421.04 259.1 354.16 156.72"/><polygon class="cls-8" points="354.16 156.72 280.82 269 414.58 269 421.04 259.1 354.16 156.72"/><polygon class="cls-6" points="354.16 156.72 280.82 269 414.58 269 421.04 259.1 354.16 156.72"/><polygon class="cls-5" points="655.11 0 830.82 269 941.07 269 765.35 0 655.11 0"/><polygon class="cls-6" points="590.29 0 497.54 141.99 580.51 269 830.82 269 655.11 0 590.29 0"/><polygon class="cls-5" points="590.29 0 497.54 141.99 580.51 269 830.82 269 655.11 0 590.29 0"/><polygon class="cls-7" points="421.04 259.1 427.51 269 580.51 269 497.54 141.99 421.04 259.1"/><polygon class="cls-6" points="421.04 259.1 427.51 269 580.51 269 497.54 141.99 421.04 259.1"/><polygon class="cls-5" points="421.04 259.1 427.51 269 580.51 269 497.54 141.99 421.04 259.1"/><polygon class="cls-7" points="414.58 269 427.51 269 421.04 259.1 414.58 269"/><polygon class="cls-8" points="414.58 269 427.51 269 421.04 259.1 414.58 269"/><polygon class="cls-6" points="414.58 269 427.51 269 421.04 259.1 414.58 269"/><polygon class="cls-5" points="414.58 269 427.51 269 421.04 259.1 414.58 269"/><polygon class="cls-5" points="456.53 0 404.79 0 430.66 39.6 456.53 0"/><polygon class="cls-7" points="1565.48 156.72 1667.85 0 1514.85 0 1488.98 39.6 1565.48 156.72"/><polygon class="cls-8" points="1863.53 0 1808.79 0 1836.16 41.9 1863.53 0"/><polygon class="cls-4" points="1920 170.24 1920 0 1863.53 0 1836.16 41.9 1920 170.24"/><polygon class="cls-8" points="1920 170.24 1920 0 1863.53 0 1836.16 41.9 1920 170.24"/><polygon class="cls-7" points="1638.82 269 1687.82 269 1836.16 41.9 1808.79 0 1667.85 0 1565.48 156.72 1638.82 269"/><polygon class="cls-8" points="1638.82 269 1687.82 269 1836.16 41.9 1808.79 0 1667.85 0 1565.48 156.72 1638.82 269"/><polygon class="cls-4" points="1687.82 269 1920 269 1920 170.24 1836.16 41.9 1687.82 269"/><polygon class="cls-7" points="1687.82 269 1920 269 1920 170.24 1836.16 41.9 1687.82 269"/><polygon class="cls-8" points="1687.82 269 1920 269 1920 170.24 1836.16 41.9 1687.82 269"/><polygon class="cls-6" points="1488.98 39.6 1463.11 0 1329.35 0 1422.1 141.99 1488.98 39.6"/><polygon class="cls-7" points="1565.48 156.72 1488.98 39.6 1422.1 141.99 1498.6 259.1 1565.48 156.72"/><polygon class="cls-6" points="1565.48 156.72 1488.98 39.6 1422.1 141.99 1498.6 259.1 1565.48 156.72"/><polygon class="cls-7" points="1498.6 259.1 1505.07 269 1638.82 269 1565.48 156.72 1498.6 259.1"/><polygon class="cls-8" points="1498.6 259.1 1505.07 269 1638.82 269 1565.48 156.72 1498.6 259.1"/><polygon class="cls-6" points="1498.6 259.1 1505.07 269 1638.82 269 1565.48 156.72 1498.6 259.1"/><polygon class="cls-5" points="1264.53 0 1154.29 0 978.58 269 1088.82 269 1264.53 0"/><polygon class="cls-6" points="1339.13 269 1422.1 141.99 1329.35 0 1264.53 0 1088.82 269 1339.13 269"/><polygon class="cls-5" points="1339.13 269 1422.1 141.99 1329.35 0 1264.53 0 1088.82 269 1339.13 269"/><polygon class="cls-7" points="1422.1 141.99 1339.13 269 1492.13 269 1498.6 259.1 1422.1 141.99"/><polygon class="cls-6" points="1422.1 141.99 1339.13 269 1492.13 269 1498.6 259.1 1422.1 141.99"/><polygon class="cls-5" points="1422.1 141.99 1339.13 269 1492.13 269 1498.6 259.1 1422.1 141.99"/><polygon class="cls-7" points="1492.13 269 1505.07 269 1498.6 259.1 1492.13 269"/><polygon class="cls-8" points="1492.13 269 1505.07 269 1498.6 259.1 1492.13 269"/><polygon class="cls-6" points="1492.13 269 1505.07 269 1498.6 259.1 1492.13 269"/><polygon class="cls-5" points="1492.13 269 1505.07 269 1498.6 259.1 1492.13 269"/><polygon class="cls-5" points="1514.85 0 1463.11 0 1488.98 39.6 1514.85 0"/></g><rect class="cls-2" width="1920" height="270"/></svg>