<svg xmlns="http://www.w3.org/2000/svg" id="Layer_5" viewBox="0 0 1024 1024"><defs><style>.cls-2,.cls-3,.cls-5,.cls-8{fill:#fff}.cls-2{opacity:.21}.cls-3{opacity:.18}.cls-5{opacity:.24}.cls-8{opacity:.35}</style></defs><g id="mimic"><g id="small"><g id="fainter" opacity=".13"><path d="m424.29 40.5 91.36 135h-181.7l90.34-135zm-177.87 271-91.36-135h181.69l-90.33 135zm549.75-8 91.35 135H705.83l90.34-135z" class="cls-3"/><path d="m887.19 438.5-91.36-135h181.69l-90.33 135zm183 0-91.36-135h181.69l-90.33 135zm-1112.13 268-91.35-135H48.4l-90.34 135zm462.1-135 91.36 135h-181.7l90.34-135z" class="cls-3"/><path d="m590.16 570.5 91.36 135h-181.7l90.34-135zm103.02 135-91.36-135h181.7l-90.34 135zm283.65-401 182.03 269H796.82l180.01-269zM53.2 833.5l-87.29-129h173.62l-86.33 129zm265.62-130 91.36 135H228.49l90.33-135z" class="cls-3"/><path d="m601.84 836.5-91.35-135h181.69l-90.34 135zm271.67-132 91.35 135H783.17l90.34-135zm-830.94 312-91.35-135h181.69l-90.34 135zm182 0-91.35-135h181.69l-90.34 135z" class="cls-3"/><path d="m405.57 1016.5-91.35-135h181.69l-90.34 135z" class="cls-3"/><path d="m585.57 1016.5-91.35-135h181.69l-90.34 135zm-160.03-711 89.32 132H337.21l88.33-132zm89 132 89.32 132H426.21l88.33-132z" class="cls-3"/><path d="m436.53 569.5-89.32-132h177.65l-88.33 132zm545 1-89.32-132h177.65l-88.33 132z" class="cls-3"/></g><g id="faint"><path d="m154.43 177.5 90 133h-179l89-133z" class="cls-2"/><path d="m152.43 437.5-90-133h179l-89 133z" class="cls-2"/><path fill="#fff" d="m244.43 307.5-90-133h179l-89 133z" opacity=".14"/><path d="m707.43 437.5-90-133h179l-89 133zm-734 0-90-133h179l-89 133zm91 134-90-133h179l-89 133zm90-133 90 133h-179l89-133zm74 134 90 133h-179l89-133zm280 0 90 133h-179l89-133zm-174-134 90 133h-179l89-133zm450 133 90 133h-179l89-133zm180 0 90 133h-179l89-133z" class="cls-2"/><path d="m875.43 705.5-90-133h179l-89 133zm-539-531 90 133h-179l89-133zm180.34-1 91.35 135H426.43l90.34-135zm191.01 2-91.35-135h181.69l-90.34 135zm186 5-91.35-135h181.69l-90.34 135z" class="cls-2"/><path fill="#fff" d="m798.78 308.5-91.35-135h181.69l-90.34 135z" opacity=".17"/><path d="M187.99 633.08 335.12 850.5H42.5l145.49-217.42z" class="cls-2"/><path d="m140.77 704.5 91.35 135H50.43l90.34-135zm371 0 91.35 135H421.43l90.34-135z" class="cls-2"/><path d="m691.77 703.5 91.35 135H601.43l90.34-135z" class="cls-2"/><path d="m692.78 968.5-91.35-135h181.69l-90.34 135zm-199.01-87 91.35 135H403.43l90.34-135zm396-446 91.35 135H799.43l90.34-135zm87.7-130.08 88.03 130.08H890.43l87.04-130.08zM604.53 570.5l-89.32-132h177.65l-88.33 132z" class="cls-2"/></g><g id="normal"><path d="m-23.55 174.5-90-133h179l-89 133zm90 133-90-133h179l-89 133z" class="cls-8"/><path d="m155.45 174.5-90-133h179l-89 133zm180 0-90-133h179l-89 133zm91-134-90-133h179l-89 133zm182 267-90-133h179l-89 133zm-560.44 119 97.44 144H-48.36l96.37-144zm362.31 413-90.68-134h180.35l-89.67 134z" class="cls-8"/><path d="m607.45 46.5 90 133h-179l89-133zm-181.58 93 113.68 168h-226.1l112.42-168z" class="cls-8"/></g><path id="bright" fill="#fff" d="m138.45 705.5-90-133h179l-89 133z" opacity=".36"/><path id="brighter" fill="#fff" d="m64.5 41.5 90 133h-179l89-133zm552 263 90 133h-179l89-133zm-301 578 90 133h-179l89-133zm20-445-90-133h179l-89 133zm629 400-90-133h179l-89 133z" opacity=".43"/></g><g id="large"><path d="m587.64 0 251.12 371 252.2-371H587.64z" class="cls-5"/><path d="m676.64 283.5 300.28 443.64L1278.5 283.5H676.64zm0 510 300.28 443.64L1278.5 793.5H676.64zm-477.14 256-300.28-443.64-301.58 443.64H199.5zm543.05-444-316.77-468-318.14 468h634.91z" class="cls-5"/></g></g></svg>