<svg id="Capa_1" enable-background="new 0 0 512 512" height="512" viewBox="0 0 512 512" width="512"
    xmlns="http://www.w3.org/2000/svg">
    <g style="fill: #808080">
        <path
            d="m215.546 85.327h-162.264c-18.073 0-28.679 20.379-18.31 35.187.133.199-3.448-4.682 130.024 177.006 5.921 8.587 4.149-.599 4.149 190.987 0 19.245 21.993 30.358 37.542 18.791 57.536-43.372 71.516-48.257 71.516-70.955 0-133.909-1.721-130.311 4.149-138.823l27.851-37.923c-70.082-25.496-112.087-99.608-94.657-174.27z" />
        <path
            d="m281.951 30.166c-75.076 67.31-38.685 187.35 55.962 206.05 75.479 15.948 143.193-43.867 143.193-116.945 0-102.594-122.364-157.159-199.155-89.105zm118.529 106.804c9.515 9.466 2.715 25.676-10.603 25.676-8.014 0-10.022-3.79-28.462-22.158-18.064 17.984-20.27 22.158-28.472 22.158-13.349 0-20.063-16.264-10.603-25.676l17.769-17.699-17.769-17.699c-14.107-14.035 7.142-35.322 21.216-21.297l17.859 17.779 17.849-17.779c14.074-14.025 35.331 7.254 21.216 21.297l-17.769 17.699z" />
    </g>
</svg>