<svg xmlns="http://www.w3.org/2000/svg" viewBox="0 0 512 512"><circle cx="256" cy="256" r="256" fill="#00337a"/><path fill="#fff16c" d="M177.2 178.6c0-43.5 17.9-82.9 46.8-111.1C138.9 84.7 74.8 159.9 74.8 250c0 102.9 83.4 186.2 186.2 186.2 7.4 0 14.8-.4 22-1.3l48.6-59.7-48.6-49.4c-61.5-20.6-105.8-78.7-105.8-147.2z"/><path d="M443.6 287.1c-28.2 28.8-67.5 46.8-111.1 46.8-17.3 0-33.9-2.8-49.5-8.1V435c80.2-9.4 144.8-69.8 160.6-147.9zm-214.8-141l35.8 18.4 18.4 35.8 18.5-54.2L283 91.9l-18.4 35.8-35.8 18.4z" fill="#ffd844"/><path fill="#ffa800" d="M301.4 164.5l35.8-18.4-35.8-18.4L283 91.9v108.4l18.4-35.8zm89.1 7.2l16.5 32.1 32.1 16.5-32.1 16.5-16.5 32.1-16.5-32.1-32.1-16.5 32.1-16.5 16.5-32.1z"/></svg>