<svg xmlns="http://www.w3.org/2000/svg" viewBox="0 0 972 972"><path d="M535.3 57c-142.6 127.9-73.5 355.9 106.3 391.4 143.4 30.3 272-83.3 272-222.1C913.6 31.4 681.1-72.2 535.3 57zm225.1 202.9c18.1 18 5.2 48.8-20.1 48.8-15.2 0-19-7.2-54.1-42.1-34.3 34.2-38.5 42.1-54.1 42.1-25.4 0-38.1-30.9-20.1-48.8l33.8-33.6-33.8-33.6c-26.8-26.7 13.6-67.1 40.3-40.5l33.9 33.8 33.9-33.8c26.7-26.6 67.1 13.8 40.3 40.5l-33.8 33.6 33.8 33.6z" fill="none"/><path d="M409.2 161.8H100.9c-34.3 0-54.5 38.7-34.8 66.8.3.4-6.5-8.9 247 336.2 11.2 16.3 7.9-1.1 7.9 362.8 0 36.6 41.8 57.7 71.3 35.7 109.3-82.4 135.8-91.7 135.8-134.8 0-254.4-3.3-247.5 7.9-263.7l52.9-72c-133.1-48.4-212.9-189.2-179.7-331z"/><path d="M784.1 228.6c19.7-28.1-.5-66.8-34.8-66.8H100.9c-34.3 0-54.5 38.7-34.8 66.8.3.4-6.5-8.9 247 336.2 11.2 16.3 7.9-1.1 7.9 362.8 0 36.6 41.8 57.7 71.3 35.7 109.3-82.4 135.8-91.7 135.8-134.8 0-221.5-2.5-244.9 4.2-258" fill="gray"/></svg>