<?xml version="1.0" encoding="utf-8"?>
<!-- Generator: Adobe Illustrator 27.0.1, SVG Export Plug-In . SVG Version: 6.00 Build 0)  -->
<svg version="1.1" id="Layer_1" xmlns="http://www.w3.org/2000/svg" xmlns:xlink="http://www.w3.org/1999/xlink" x="0px" y="0px"
	 viewBox="0 0 972 972" style="enable-background:new 0 0 972 972;" xml:space="preserve">
<style type="text/css">
	.st0{fill:none;}
	.st1{fill:#808080;}
</style>
<path class="st0" d="M535.3,57c-142.6,127.9-73.5,355.9,106.3,391.4c143.4,30.3,272-83.3,272-222.1C913.6,31.4,681.1-72.2,535.3,57z
	 M760.4,259.9c18.1,18,5.2,48.8-20.1,48.8c-15.2,0-19-7.2-54.1-42.1c-34.3,34.2-38.5,42.1-54.1,42.1c-25.4,0-38.1-30.9-20.1-48.8
	l33.8-33.6L612,192.7c-26.8-26.7,13.6-67.1,40.3-40.5l33.9,33.8l33.9-33.8c26.7-26.6,67.1,13.8,40.3,40.5l-33.8,33.6L760.4,259.9
	L760.4,259.9z"/>
<path class="st1" d="M468.8,832.8c-2.6,0-4.7-2.1-4.7-4.7v-55.3c0-2.6,2.1-4.7,4.7-4.7H528c0-0.1,0-0.3,0-0.4c0-0.8,0-1.6,0-2.5
	c0-0.7,0-1.5,0-2.2c0-1.4,0-2.8,0-4.1c0-0.1,0-0.1,0-0.2c0-1.2,0-2.4,0-3.6c0-1,0-2,0-3c0-0.7,0-1.5,0-2.2c0-0.9,0-1.7,0-2.6
	c0-0.1,0-0.1,0-0.2h-59.2c-2.6,0-4.7-2.1-4.7-4.7v-55.3c0-2.6,2.1-4.7,4.7-4.7h59c0-7.5-0.1-14.5-0.1-21h-58.9
	c-2.6,0-4.7-2.1-4.7-4.7v-55.3c0-2.6,2.1-4.7,4.7-4.7h59.3c0.6-16,1.9-21.9,4.4-26.5l251.6-341.6c19.7-28.1-0.5-66.8-34.8-66.8
	H409.2H100.9c-34.3,0-54.5,38.7-34.8,66.8c0.3,0.4-6.5-8.9,247,336.2c11.2,16.3,7.9-1.1,7.9,362.8c0,36.6,41.8,57.7,71.3,35.7
	c105.6-79.6,133.9-91,135.7-130.5H468.8z"/>
<path class="st1" d="M787.1,651.5h-307c-2.6,0-4.7-2.1-4.7-4.7v-35.4c0-2.6,2.1-4.7,4.7-4.7h307c2.6,0,4.7,2.1,4.7,4.7v35.4
	C791.8,649.4,789.7,651.5,787.1,651.5z"/>
<path class="st1" d="M787.1,737.2h-307c-2.6,0-4.7-2.1-4.7-4.7v-35.4c0-2.6,2.1-4.7,4.7-4.7h307c2.6,0,4.7,2.1,4.7,4.7v35.4
	C791.8,735.1,789.7,737.2,787.1,737.2z"/>
<path class="st1" d="M787.1,822.9h-307c-2.6,0-4.7-2.1-4.7-4.7v-35.4c0-2.6,2.1-4.7,4.7-4.7h307c2.6,0,4.7,2.1,4.7,4.7v35.4
	C791.8,820.8,789.7,822.9,787.1,822.9z"/>
</svg>
