<?xml version="1.0" encoding="UTF-8"?><svg id="Layer_2" xmlns="http://www.w3.org/2000/svg" viewBox="0 0 512 460.63"><defs><style>.cls-1{fill:#ffd1db;}</style></defs><path class="cls-1" d="M482.45,53.24C444.72,3.66,377.96-13.65,320.9,11.35c-24.82,10.71-46.95,28.76-64.9,52.72-17.95-24.02-40.08-42.07-64.9-52.72C134.04-13.65,67.28,3.66,29.55,53.24,10.22,78.57,0,110.22,0,144.78c0,49.72,29.65,104.27,88.13,162.2,47.65,47.18,167.87,153.66,167.87,153.66,0,0,120.22-106.48,167.87-153.66,58.48-57.9,88.13-112.48,88.13-162.2,0-34.55-10.22-66.21-29.55-91.54Z"/></svg>