<svg xmlns="http://www.w3.org/2000/svg" xml:space="preserve" id="prefix__Layer_1" x="0" y="0" version="1.1" viewBox="0 0 682.7 682.7"><style>.prefix__st1{fill:#ffd844}</style><circle cx="341.3" cy="341.3" r="341.3" fill="#407acc"/><path d="M341 87.1c-8.2 0-14.9 6.7-14.9 14.9v47.8c0 8.2 6.7 14.9 14.9 14.9s14.9-6.7 14.9-14.9V102c0-8.2-6.7-14.9-14.9-14.9zm-158.5 74.4c-5.8-5.8-15.2-5.8-21 0-5.8 5.8-5.8 15.2 0 21l33.8 33.8c5.8 5.8 15.2 5.8 21 0 5.8-5.8 5.8-15.2 0-21l-33.8-33.8zm12.8 304.2l-33.8 33.8c-5.8 5.8-5.8 15.2 0 21 5.8 5.8 15.2 5.8 21 0l33.8-33.8c5.8-5.8 5.8-15.2 0-21-5.8-5.8-15.2-5.8-21 0zM341 517.3c-8.2 0-14.9 6.7-14.9 14.9V580c0 8.2 6.7 14.9 14.9 14.9s14.9-6.7 14.9-14.9v-47.8c0-8.2-6.7-14.9-14.9-14.9zM164.7 341c0-8.2-6.7-14.9-14.9-14.9H102c-8.2 0-14.9 6.7-14.9 14.9s6.7 14.9 14.9 14.9h47.8c8.2 0 14.9-6.7 14.9-14.9z" class="prefix__st1"/><path fill="#fff16c" d="M341 467.4c-69.7 0-126.4-56.7-126.4-126.4S271.3 214.6 341 214.6 467.4 271.3 467.4 341 410.7 467.4 341 467.4z"/><path d="M467.4 341c0-69.7-56.7-126.4-126.4-126.4v252.8c69.7 0 126.4-56.7 126.4-126.4z" class="prefix__st1"/><path d="M486.7 216.3l33.8-33.8c5.8-5.8 5.8-15.2 0-21-5.8-5.8-15.2-5.8-21 0l-33.8 33.8c-5.8 5.8-5.8 15.2 0 21 5.8 5.8 15.2 5.8 21 0zm0 249.4c-5.8-5.8-15.2-5.8-21 0-5.8 5.8-5.8 15.2 0 21l33.8 33.8c5.8 5.8 15.2 5.8 21 0 5.8-5.8 5.8-15.2 0-21l-33.8-33.8zM580 326.1h-47.8c-8.2 0-14.9 6.7-14.9 14.9s6.7 14.9 14.9 14.9H580c8.2 0 14.9-6.7 14.9-14.9s-6.7-14.9-14.9-14.9zm-239-239v77.5c8.2 0 14.9-6.7 14.9-14.9V102c0-8.2-6.7-14.9-14.9-14.9zm0 430.2v77.5c8.2 0 14.9-6.7 14.9-14.9v-47.8c0-8.1-6.7-14.8-14.9-14.8z" fill="#ffa800"/></svg>