<?xml version="1.0" encoding="UTF-8"?><svg xmlns="http://www.w3.org/2000/svg" xmlns:xlink="http://www.w3.org/1999/xlink" viewBox="0 0 512 512"><defs><style>.cls-1,.cls-2{fill:none;}.cls-3{fill:url(#linear-gradient);}.cls-4{fill:url(#linear-gradient-8);}.cls-5{fill:url(#linear-gradient-9);}.cls-6{fill:url(#linear-gradient-3);}.cls-7{fill:url(#linear-gradient-4);}.cls-8{fill:url(#linear-gradient-2);}.cls-9{fill:url(#linear-gradient-6);}.cls-10{fill:url(#linear-gradient-7);}.cls-11{fill:url(#linear-gradient-5);}.cls-12{fill:url(#linear-gradient-14);}.cls-13{fill:url(#linear-gradient-18);}.cls-14{fill:url(#linear-gradient-22);}.cls-15{fill:url(#linear-gradient-20);}.cls-16{fill:url(#linear-gradient-21);}.cls-17{fill:url(#linear-gradient-23);}.cls-18{fill:url(#linear-gradient-15);}.cls-19{fill:url(#linear-gradient-19);}.cls-20{fill:url(#linear-gradient-16);}.cls-21{fill:url(#linear-gradient-17);}.cls-22{fill:url(#linear-gradient-13);}.cls-23{fill:url(#linear-gradient-12);}.cls-24{fill:url(#linear-gradient-10);}.cls-25{fill:url(#linear-gradient-11);}.cls-26{fill:url(#linear-gradient-24);}.cls-2{stroke:#82bcff;stroke-linecap:round;stroke-miterlimit:10;stroke-width:.75px;}</style><linearGradient id="linear-gradient" x1="246.67" y1="380.14" x2="246.67" y2="1110.79" gradientUnits="userSpaceOnUse"><stop offset="0" stop-color="#b0d5ff"/><stop offset=".31" stop-color="#fff" stop-opacity="0"/></linearGradient><linearGradient id="linear-gradient-2" x1="188.89" y1="214.15" x2="188.89" y2="271.4" gradientUnits="userSpaceOnUse"><stop offset="0" stop-color="#b0d5ff"/><stop offset=".69" stop-color="#b0d5ff" stop-opacity=".4"/><stop offset="1" stop-color="#fff" stop-opacity="0"/></linearGradient><linearGradient id="linear-gradient-3" x1="128.74" y1="194" x2="128.74" y2="245.92" xlink:href="#linear-gradient-2"/><linearGradient id="linear-gradient-4" x1="434.55" y1="148.07" x2="434.55" y2="201.87" xlink:href="#linear-gradient-2"/><linearGradient id="linear-gradient-5" x1="236.97" y1="141.35" x2="236.97" y2="432.63" gradientUnits="userSpaceOnUse"><stop offset="0" stop-color="#b0d5ff"/><stop offset="1" stop-color="#67a8f5"/></linearGradient><linearGradient id="linear-gradient-6" x1="252.26" y1="141.37" x2="252.26" y2="432.63" gradientUnits="userSpaceOnUse"><stop offset="0" stop-color="#d9eaff"/><stop offset="1" stop-color="#82bcff"/></linearGradient><linearGradient id="linear-gradient-7" x1="229.31" y1="132.54" x2="244.63" y2="132.54" gradientUnits="userSpaceOnUse"><stop offset="0" stop-color="#b0d5ff"/><stop offset="1" stop-color="#82bcff"/></linearGradient><linearGradient id="linear-gradient-8" x1="244.63" y1="132.54" x2="259.95" y2="132.54" gradientUnits="userSpaceOnUse"><stop offset="0" stop-color="#b0d5ff"/><stop offset="1" stop-color="#82bcff"/></linearGradient><linearGradient id="linear-gradient-9" x1="303.1" y1="167.96" x2="276.8" y2="213.51" xlink:href="#linear-gradient-6"/><linearGradient id="linear-gradient-10" x1="192.11" y1="361.87" x2="146.25" y2="388.35" xlink:href="#linear-gradient-8"/><linearGradient id="linear-gradient-11" x1="153.89" y1="375.11" x2="153.89" y2="481.03" xlink:href="#linear-gradient-5"/><linearGradient id="linear-gradient-12" x1="184.48" y1="375.11" x2="184.48" y2="481.03" xlink:href="#linear-gradient-6"/><linearGradient id="linear-gradient-13" x1="481.95" y1="384.08" x2="436.08" y2="410.56" xlink:href="#linear-gradient-8"/><linearGradient id="linear-gradient-14" x1="443.72" y1="397.33" x2="443.72" y2="503.24" xlink:href="#linear-gradient-5"/><linearGradient id="linear-gradient-15" x1="474.32" y1="397.33" x2="474.32" y2="503.24" xlink:href="#linear-gradient-6"/><linearGradient id="linear-gradient-16" x1="389.88" y1="260.52" x2="344.02" y2="287" xlink:href="#linear-gradient-8"/><linearGradient id="linear-gradient-17" x1="351.66" y1="273.74" x2="351.66" y2="432.54" xlink:href="#linear-gradient-5"/><linearGradient id="linear-gradient-18" x1="382.26" y1="273.76" x2="382.26" y2="432.54" xlink:href="#linear-gradient-6"/><linearGradient id="linear-gradient-19" x1="78.54" y1="313.42" x2="32.67" y2="339.9" xlink:href="#linear-gradient-8"/><linearGradient id="linear-gradient-20" x1="40.32" y1="326.64" x2="40.32" y2="485.44" xlink:href="#linear-gradient-5"/><linearGradient id="linear-gradient-21" x1="70.91" y1="326.66" x2="70.91" y2="485.44" xlink:href="#linear-gradient-6"/><linearGradient id="linear-gradient-22" x1="346.74" y1="380.05" x2="300.87" y2="406.54" xlink:href="#linear-gradient-8"/><linearGradient id="linear-gradient-23" x1="308.52" y1="393.3" x2="308.52" y2="499.22" xlink:href="#linear-gradient-5"/><linearGradient id="linear-gradient-24" x1="339.11" y1="393.3" x2="339.11" y2="499.22" xlink:href="#linear-gradient-6"/></defs><g id="_地球"><ellipse id="_地球-2" class="cls-3" cx="246.67" cy="745.46" rx="430.46" ry="365.33"/></g><g id="_云"><g><path class="cls-8" d="m142.57,242.29c.16,0,.32.02.48.02.25-15.8,13.27-28.41,29.07-28.16,11.56.19,21.87,7.3,26.14,18.05,9.31-8.08,23.41-7.08,31.49,2.23,2,2.31,3.51,5,4.43,7.91.34-.02.69-.05,1.03-.05,8.04.08,14.49,6.66,14.42,14.7-.08,7.93-6.49,14.34-14.42,14.42h-92.65c-8.04-.08-14.49-6.66-14.42-14.7.08-7.93,6.49-14.34,14.42-14.42h0Z"/><path class="cls-6" d="m93.89,219.53c.32,0,.63.03.94.05,3.36-10.66,14.74-16.58,25.4-13.22,2.64.83,5.09,2.2,7.18,4.02,5.29-13.32,20.37-19.83,33.69-14.54,8.1,3.22,14.05,10.29,15.83,18.82-15.49-2.95-30.43,7.21-33.38,22.7-.31,1.63-.48,3.29-.5,4.96-.16,0-.32-.02-.48-.02-3.54,0-6.96,1.29-9.61,3.64h-39.07c-7.29.07-13.26-5.78-13.33-13.07-.07-7.29,5.78-13.26,13.07-13.33.09,0,.18,0,.27,0h0Z"/></g><path class="cls-7" d="m467.16,194.33c-1.04,0-2.08-.11-3.1-.33-3.48,4-8.45,6.27-13.78,6.27-3.19,0-6.29-.83-9.05-2.4-3.23,2.59-7.24,4-11.41,4-5.31,0-10.23-2.24-13.7-6.19-2.2,1.34-4.7,2.04-7.32,2.04-3.57,0-6.97-1.33-9.59-3.76-2.4-2.22-3.94-5.18-4.39-8.39-4.52-2.38-7.4-7.11-7.4-12.25,0-6.99,5.22-12.84,12.04-13.73,2.34-6.83,8.84-11.52,16.13-11.52,4.12,0,8.02,1.45,11.11,4.12,2.47-1.93,5.51-2.99,8.68-2.99,3.58,0,6.93,1.31,9.53,3.71,2.32-1.02,4.78-1.54,7.34-1.54,4.35,0,8.56,1.55,11.86,4.38,3.01,2.57,5.1,6.05,5.96,9.87,6.66,1.37,11.57,7.31,11.57,14.2,0,8-6.51,14.5-14.5,14.5Z"/></g><g id="_建筑"><g id="Sanctum_Tower"><polygon class="cls-11" points="244.56 432.63 229.31 423.84 229.31 141.35 244.63 150.19 244.56 432.63"/><polygon class="cls-9" points="259.89 423.82 259.95 141.37 244.63 150.19 244.56 432.63 259.89 423.82"/><polygon class="cls-1" points="244.63 150.19 229.31 141.35 244.63 132.54 259.95 141.37 244.63 150.19"/><polygon class="cls-10" points="244.63 114.89 229.31 141.35 244.63 150.19 244.63 114.89"/><polygon class="cls-4" points="259.95 141.37 244.63 150.19 244.63 114.89 259.95 141.37"/><path class="cls-5" d="m310.55,176.95c-8.85-13.66-24.77-19.39-35.57-12.8-9.65,5.89-11.9,19.64-5.95,32.26l-2.52,11.16,9-1.58c9.11,9.82,22.22,13.31,31.52,7.63,10.79-6.59,12.36-23.01,3.51-36.67Zm-27.59,20.95l-1.43,1.33c-.73.68-1.88.64-2.56-.09l-.97-1.04c-.68-.73-.64-1.88.09-2.56l1.43-1.33c.73-.68,1.88-.64,2.56.09l.97,1.04c.68.73.64,1.87-.09,2.56Zm18.13-5.84c-.9.84-1.99,1.37-3.26,1.61-1.28.24-3.38.17-6.31-.21-1.52-.19-2.59-.2-3.22,0-.37.11-.82.38-1.35.79-.74.58-1.8.5-2.44-.19l-1.01-1.08c-.7-.75-.64-1.94.14-2.61.91-.78,1.92-1.46,3.09-1.79,1.14-.32,2.75-.34,4.82-.05,2.07.29,3.37.41,3.88.37.81-.08,1.49-.39,2.06-.92.79-.74,1.17-1.68,1.15-2.84-.03-1.16-.55-2.28-1.55-3.35-.97-1.04-2.07-1.63-3.31-1.78-.87-.11-1.8.04-2.78.44-.77.31-1.66.06-2.15-.61l-1.54-2.13c-.33-.46-.21-1.09.28-1.4,1.64-1.06,3.52-1.49,5.63-1.28,2.48.24,4.76,1.47,6.83,3.7,2.18,2.34,3.3,4.77,3.37,7.29.07,2.52-.71,4.54-2.33,6.05Z"/></g><g id="_矮楼1"><polygon class="cls-24" points="199.76 375.11 169.17 392.76 138.6 375.11 169.17 357.46 199.76 375.11"/><polygon class="cls-25" points="169.2 481.03 169.17 392.76 138.6 375.11 138.59 463.32 169.2 481.03"/><polygon class="cls-23" points="199.8 463.32 199.76 375.11 169.17 392.76 169.2 481.03 199.8 463.32"/></g><g id="_矮楼1-2"><polygon class="cls-22" points="489.59 397.33 459 414.97 428.44 397.33 459 379.67 489.59 397.33"/><polygon class="cls-12" points="459.03 503.24 459 414.97 428.44 397.33 428.42 485.54 459.03 503.24"/><polygon class="cls-18" points="489.64 485.54 489.59 397.33 459 414.97 459.03 503.24 489.64 485.54"/></g><g id="_高楼1"><polygon class="cls-20" points="397.53 273.76 366.94 291.41 336.37 273.76 366.94 256.11 397.53 273.76"/><polygon class="cls-21" points="366.97 432.54 366.94 291.38 336.37 273.74 336.36 414.84 366.97 432.54"/><polygon class="cls-13" points="397.57 414.84 397.53 273.76 366.94 291.41 366.97 432.54 397.57 414.84"/></g><g id="_高楼1-2"><polygon class="cls-19" points="86.19 326.66 55.6 344.31 25.03 326.66 55.6 309.01 86.19 326.66"/><polygon class="cls-15" points="55.62 485.44 55.6 344.28 25.03 326.64 25.02 467.74 55.62 485.44"/><polygon class="cls-16" points="86.23 467.74 86.19 326.66 55.6 344.31 55.62 485.44 86.23 467.74"/></g><g id="_矮楼1-3"><polygon class="cls-14" points="354.39 393.3 323.79 410.94 293.23 393.3 323.79 375.64 354.39 393.3"/><polygon class="cls-17" points="323.82 499.22 323.79 410.94 293.23 393.3 293.22 481.51 323.82 499.22"/><polygon class="cls-26" points="354.43 481.51 354.39 393.3 323.79 410.94 323.82 499.22 354.43 481.51"/></g></g><g id="_光环"><line class="cls-2" x1="244.63" y1="66.65" x2="244.63" y2="112.46"/><line class="cls-2" x1="244.63" y1="50.16" x2="244.63" y2="63.51"/><line class="cls-2" x1="244.63" y1="39.17" x2="244.63" y2="46.6"/><path class="cls-2" d="m125.81,69.26c27.15,9.88,70.27,16.27,118.82,16.27,82.16,0,148.76-18.28,148.76-40.84S326.79,3.85,244.63,3.85,95.87,22.13,95.87,44.69c0,4.23,2.34,8.31,6.69,12.14"/><path class="cls-2" d="m102.56,56.83c3.96,3.5,9.59,6.79,16.62,9.81"/><path class="cls-2" d="m312.6,68.58c25.84-5.55,42.46-14.19,42.46-23.9,0-16.74-49.44-30.32-110.43-30.32s-110.43,13.57-110.43,30.32c0,7.11,8.92,13.65,23.86,18.82"/><path class="cls-2" d="m158.06,63.51c20.23,7,51.49,11.49,86.57,11.49,18.59,0,36.1-1.26,51.48-3.49"/></g></svg>