<svg xmlns="http://www.w3.org/2000/svg" xml:space="preserve" viewBox="0 0 512 512"><path fill="#fff" d="M423 211.5h-16.7v-61.2C406.3 67.4 338.9 0 256 0S105.7 67.4 105.7 150.3v61.2H89c-27.6 0-50.1 22.5-50.1 50.1v200.3C39 489.5 61.4 512 89 512h334c27.6 0 50.1-22.5 50.1-50.1V261.6c-.1-27.7-22.5-50.1-50.1-50.1zM272.7 375.4v53.2c0 9.2-7.5 16.7-16.7 16.7s-16.7-7.5-16.7-16.7v-53.2c-19.4-6.9-33.4-25.2-33.4-47 0-27.7 22.4-50.1 50.1-50.1 27.7 0 50.1 22.4 50.1 50.1 0 21.7-14 40.1-33.4 47zm66.8-163.9h-167v-61.2c0-46 37.4-83.5 83.5-83.5s83.5 37.4 83.5 83.5v61.2z"/></svg>