<?xml version="1.0" encoding="UTF-8" standalone="no"?>
<!DOCTYPE svg PUBLIC "-//W3C//DTD SVG 1.1//EN" "http://www.w3.org/Graphics/SVG/1.1/DTD/svg11.dtd">
<svg width="100%" height="100%" viewBox="0 0 24 24" version="1.1" xmlns="http://www.w3.org/2000/svg" xmlns:xlink="http://www.w3.org/1999/xlink" xml:space="preserve" xmlns:serif="http://www.serif.com/" style="fill-rule:evenodd;clip-rule:evenodd;stroke-linecap:round;stroke-linejoin:round;">
    <path d="M3,20L3,9.5C3,8.948 3.448,8.5 4,8.5L7.5,8.5C8.052,8.5 8.5,8.948 8.5,9.5L8.5,14.5C8.5,15.052 8.948,15.5 9.5,15.5L14.5,15.5C15.052,15.5 15.5,15.948 15.5,16.5L15.5,20C15.5,20.552 15.052,21 14.5,21L4,21C3.448,21 3,20.552 3,20Z" style="fill:none;fill-rule:nonzero;stroke:rgb(0,98,224);stroke-width:2px;"/>
    <path d="M21,4L21,14.5C21,15.052 20.552,15.5 20,15.5L16.5,15.5C15.948,15.5 15.5,15.052 15.5,14.5L15.5,9.5C15.5,8.948 15.052,8.5 14.5,8.5L9.5,8.5C8.948,8.5 8.5,8.052 8.5,7.5L8.5,4C8.5,3.448 8.948,3 9.5,3L20,3C20.552,3 21,3.448 21,4Z" style="fill:none;fill-rule:nonzero;stroke:rgb(0,98,224);stroke-width:2px;"/>
    <rect x="9" y="9" width="6" height="6" style="fill:rgb(0,98,224);"/>
</svg>
