<svg id="Layer_2_00000176729814211721424550000010577605781189976721_" enable-background="new 0 0 512 512" height="512" viewBox="0 0 512 512" width="512" xmlns="http://www.w3.org/2000/svg" xmlns:xlink="http://www.w3.org/1999/xlink"><linearGradient id="Home-2_00000030452444360459693510000014945892808564717727_" gradientTransform="matrix(1 0 0 -1 0 513.02)" gradientUnits="userSpaceOnUse" x1="83.13" x2="429.12" y1="356.271" y2="10.281"><stop offset="0" stop-color="#64b5f6"/><stop offset="1" stop-color="#1976d2"/></linearGradient><g id="Social_Icon"><path id="Home-2" d="m481.71 281.91-37.77.06v193.521c0 16.57-13.43 30-30 30h-101.89v-115.761c0-31.02-25.14-56.17-56.17-56.17-15.51 0-29.55 6.29-39.72 16.45-10.16 10.17-16.45 24.21-16.45 39.72v115.76h-101.881c-16.57 0-30-13.43-30-30v-192.91l-37.44.06c-27 .04-40.55-32.6-21.46-51.69l208.181-208.181c21.68-21.68 56.83-21.68 78.51 0l207.45 207.451c19.06 19.06 5.59 51.64-21.36 51.69z" fill="url(#Home-2_00000030452444360459693510000014945892808564717727_)"/></g></svg>