<?xml version="1.0" encoding="UTF-8" standalone="no"?>
<!DOCTYPE svg PUBLIC "-//W3C//DTD SVG 1.1//EN" "http://www.w3.org/Graphics/SVG/1.1/DTD/svg11.dtd">
<svg width="100%" height="100%" viewBox="0 0 512 512" version="1.1" xmlns="http://www.w3.org/2000/svg" xmlns:xlink="http://www.w3.org/1999/xlink" xml:space="preserve" xmlns:serif="http://www.serif.com/" style="fill-rule:evenodd;clip-rule:evenodd;stroke-linejoin:round;stroke-miterlimit:2;">
    <g transform="matrix(1,0,0,1,0,17.05)">
        <path d="M101.8,396.4C48.5,396.4 3.4,450.2 0,475.9C81.4,483.8 196.1,469.1 252.1,410.9C177.4,424.4 116.2,405.7 101.8,396.4ZM281.4,412.5C336.5,485.8 419.1,471 511.9,475.8C515.4,433.7 438.7,394.9 408,393.6C368.1,422.1 284.7,413.1 281.4,412.5Z" style="fill:url(#_Linear1);fill-rule:nonzero;"/>
        <path d="M256.4,0C136.8,45 31.5,151.4 31.5,259.4C31.5,344.4 99.9,413.3 226.8,396.7C230.7,396.2 234.4,395.6 238,395C236.9,394.6 235.9,394.1 235.1,393.7C215.7,383.9 181.7,337 196.1,281.1C197.5,340.4 235.8,383.7 253.2,392.1C255.9,393.4 265.1,396.7 278.7,398.8C330.6,406.8 443.6,403.5 466.6,282.1C498.9,111.4 256.4,0 256.4,0Z" style="fill:url(#_Linear2);fill-rule:nonzero;"/>
    </g>
    <defs>
        <linearGradient id="_Linear1" x1="0" y1="0" x2="1" y2="0" gradientUnits="userSpaceOnUse" gradientTransform="matrix(-44,248,-40.8176,-7.24183,311,313)"><stop offset="0" style="stop-color:rgb(195,237,158);stop-opacity:1"/><stop offset="1" style="stop-color:rgb(83,166,24);stop-opacity:1"/></linearGradient>
        <linearGradient id="_Linear2" x1="0" y1="0" x2="1" y2="0" gradientUnits="userSpaceOnUse" gradientTransform="matrix(-60.5465,396.923,-363.707,-55.4798,250.531,2.2619)"><stop offset="0" style="stop-color:rgb(255,188,204);stop-opacity:1"/><stop offset="1" style="stop-color:rgb(253,115,147);stop-opacity:1"/></linearGradient>
    </defs>
</svg>
