<svg id="Layer_1" enable-background="new 0 0 48 48" height="512" viewBox="0 0 48 48" width="512" xmlns="http://www.w3.org/2000/svg" xmlns:xlink="http://www.w3.org/1999/xlink"><linearGradient id="SVGID_1_" gradientUnits="userSpaceOnUse" x1="1" x2="46.904" y1="24.002" y2="24.002"><stop offset="0" stop-color="#da22ff"/><stop offset="1" stop-color="#9733ee"/></linearGradient><path d="m12.8 13.4c.3.6.7 1.2 1.2 1.7.4-.5.8-1.1 1.1-1.7.4-.7.7-1.5.8-2.3h-4c.2.8.5 1.6.9 2.3zm14.2 2.6v-10c0-2.2-1.8-4-4-4h-18c-2.2 0-4 1.8-4 4v16c0 2.2 1.8 4 4 4h1v3c0 .6.4 1 1 1 .2 0 .4-.1.6-.2l4.7-3.8h6.7v-4c0-.6.1-1.2.3-1.8-1.9-.5-3.6-1.4-5.2-2.6-1.7 1.3-3.6 2.2-5.6 2.7-.3-.8-.7-1.5-1.2-2.1 1.9-.4 3.6-1.1 5.2-2.1-.7-.7-1.3-1.6-1.8-2.5-.5-.8-.8-1.7-1.1-2.6h-.2c-.7 0-1.3 0-1.9.1v-2.1c.7 0 1.3.1 1.9.1h3.3v-.9c0-.3 0-.6-.1-1h2.4c.1.3 0 .6 0 1v.9h3.5c.6 0 1.3 0 1.9-.1v2.2c-.6-.1-1.2-.1-1.8-.1h-.3c-.2 1-.6 1.9-1 2.7s-1 1.6-1.6 2.3c1.4 1 3.1 1.6 4.8 1.9 1.1-1.3 2.8-2 4.5-2zm7 9.9c-.2.7-.7 2.4-1.5 5.2h3.1c-.8-2.6-1.2-4-1.3-4.4-.2-.4-.3-.6-.3-.8zm9-7.9h-18c-2.2 0-4 1.8-4 4v16c0 2.2 1.8 4 4 4h10.6l4.7 3.8c.4.3 1.1.3 1.4-.2.1-.2.2-.4.2-.6v-3h1c2.2 0 4-1.8 4-4v-16c.1-2.2-1.7-4-3.9-4zm-6 18-.9-2.8h-4.3l-.8 2.8h-2.7l4.2-12h3.1l4.2 12z" fill="url(#SVGID_1_)"/></svg>